<svg width="50" height="50" viewBox="0 0 50 50" fill="none" xmlns="http://www.w3.org/2000/svg">
<path d="M37.5 5.15625C33.9062 2.89062 29.6094 1.5625 25 1.5625C20.3906 1.5625 16.0938 2.89062 12.5 5.15625V44.7656C16.0938 47.0312 20.3906 48.3594 25 48.3594C29.6094 48.3594 33.9062 47.0312 37.5 44.7656V5.15625Z" fill="#F9F9F9"/>
<path d="M37.5 5.15625V44.7656C44.0625 40.7031 48.4375 33.2031 48.4375 24.9219C48.4375 16.6406 44.0625 9.29688 37.5 5.15625ZM12.5 5.15625C5.9375 9.29688 1.5625 16.7969 1.5625 25C1.5625 33.2031 5.9375 40.7031 12.5 44.8438V5.15625ZM33.5156 24.6875C33.2031 24.5312 33.125 24.2188 33.2031 24.0625L33.9844 21.25L31.25 21.7969C31.1719 21.7969 30.8594 21.7969 30.7813 21.25L30.5469 20.3125L28.6719 22.5C28.6719 22.5 27.4219 23.8281 27.8125 21.7969L28.5937 17.5L27.1094 18.2812C27.0312 18.2812 26.7188 18.3594 26.3281 17.5781L25 14.8438L23.5938 17.4219C23.2031 18.2031 22.8906 18.125 22.8125 18.125L21.3281 17.3438L22.1094 21.6406C22.5 23.6719 21.25 22.3438 21.25 22.3438L19.375 20.1562L19.1406 21.0938C18.9844 21.6406 18.75 21.6406 18.6719 21.6406L15.9375 21.0938L16.7188 23.9062C16.7188 24.1406 16.7188 24.375 16.4062 24.5312L15.625 25C15.625 25 18.75 27.5 19.7656 28.3594C20 28.5156 20.4688 28.9844 20.3125 29.5312L19.9219 30.625L24.2188 30C24.4531 30 24.9219 30 24.8438 30.7031L24.6094 35.1563H25.3906L25.1562 30.7031C25.1562 30 25.625 30 25.7812 30L30.0781 30.625L29.6875 29.5312C29.5312 28.9844 30 28.5156 30.2344 28.3594C31.25 27.5 34.375 25 34.375 25L33.5156 24.6875Z" fill="#ED4C5C"/>
</svg>
