<svg width="164" height="53" viewBox="0 0 164 53" fill="none" xmlns="http://www.w3.org/2000/svg">
<mask id="mask0_100_1041" style="mask-type:luminance" maskUnits="userSpaceOnUse" x="0" y="0" width="164" height="53">
<path d="M163.11 0H0V53H163.11V0Z" fill="white"/>
</mask>
<g mask="url(#mask0_100_1041)">
<path d="M51.0444 25.9061C51.0444 39.8201 39.7332 51.1012 25.779 51.1012C21.9519 51.1039 18.1743 50.2387 14.7321 48.5707C11.2899 46.9027 8.2732 44.4758 5.91036 41.4735C8.29589 38.6476 11.2287 36.8604 15.2873 37.1954C16.348 37.2846 17.4276 37.1751 18.4936 37.2129C20.7694 37.2967 22.8286 36.5997 24.7426 35.4676C27.9302 33.5899 30.1449 30.7949 32.0198 27.6866C32.5616 26.7922 32.4479 26.4424 31.306 26.4545C27.1404 26.4992 22.9748 26.4897 18.8093 26.4748C11.9548 26.455 7.15707 29.5734 4.41618 35.8296C4.10174 36.5465 3.83961 37.2852 3.63183 38.0396C1.58152 34.3228 0.509555 30.1482 0.516143 25.9061C0.516143 11.9921 11.8274 0.708319 25.7804 0.708319C29.9834 0.705372 34.1206 1.74944 37.8162 3.74571C41.5119 5.74196 44.6491 8.62719 46.9426 12.1394C38.8066 12.107 30.672 11.8017 22.5455 12.2529C15.8021 12.6257 11.1014 19.1328 12.7147 25.9953C14.5842 23.2935 17.1188 22.7653 19.9554 22.7829C25.4768 22.8193 30.9971 22.7235 36.5186 22.7329C38.976 22.7329 41.1922 22.0454 43.1564 20.6229C45.2507 19.1086 47.1973 17.42 48.6169 15.2194C48.6265 15.2072 48.6359 15.1923 48.6441 15.1802C50.2301 18.5344 51.0499 22.1977 51.0444 25.9061Z" fill="#7535FD"/>
<path d="M72.0777 13.8255C67.532 13.8255 64.653 16.6586 64.653 21.3049V23.987H60.9785V27.6511H64.653V43.3656H68.8956V27.6511H73.6686V23.987H68.8956V21.1917C68.8956 18.9251 70.373 17.5274 72.5322 17.5274C72.8731 17.5274 73.2898 17.5652 73.7444 17.6029V13.9388C73.2519 13.8633 72.6837 13.8255 72.0777 13.8255ZM77.5325 15.4121C76.5096 16.4319 76.5096 18.094 77.5325 19.1518C78.5932 20.1718 80.2599 20.1718 81.3206 19.1518C82.3811 18.094 82.3811 16.4319 81.3206 15.4121C80.2599 14.3543 78.5932 14.3543 77.5325 15.4121ZM81.5478 23.987H77.3052V43.3656H81.5478V23.987ZM95.4808 23.6471C92.7913 23.6471 90.8973 24.6292 89.7986 26.5557V23.987H85.7834V43.3656H90.026V32.2976C90.026 29.5778 91.8442 27.5756 94.5338 27.5756C97.1097 27.5756 98.7764 29.3888 98.7764 32.2597V43.3656H103.057V31.6931C103.057 29.2378 102.337 27.2735 100.936 25.8379C99.534 24.3647 97.7157 23.6471 95.4808 23.6471ZM115.644 23.6471C112.765 23.6471 110.416 24.5537 108.598 26.329C106.818 28.1045 105.909 30.5599 105.909 33.6953C105.909 36.7927 106.818 39.2481 108.636 41.0614C110.454 42.8369 112.803 43.7435 115.644 43.7435C120.379 43.7435 123.864 40.9858 124.622 36.6039L120.455 36.2261C120.038 38.6438 118.258 40.0792 115.644 40.0792C112.462 40.0792 110.227 37.6616 110.227 33.6953C110.227 29.6533 112.424 27.2735 115.644 27.2735C118.22 27.2735 120.114 28.8223 120.417 31.3531L124.584 30.9755C123.94 26.4424 120.379 23.6471 115.644 23.6471ZM137.008 23.7603C134.243 23.7603 132.425 24.7425 131.478 26.7068V23.987H127.349V43.3656H131.591V32.8264C131.591 29.9554 133.713 27.8778 137.008 27.8778V23.7603ZM146.04 23.6471C143.729 23.6471 141.835 24.327 140.433 25.7247C139.032 27.0845 138.312 28.6712 138.312 30.4844L142.592 30.6355C142.592 28.7844 143.805 27.349 146.078 27.349C148.388 27.349 149.525 28.7089 149.525 31.391V31.9576L144.903 32.222C140.168 32.4864 137.782 34.4507 137.782 38.0772C137.782 41.6657 140.32 43.7435 144.259 43.7435C146.267 43.7435 148.047 43.0257 149.525 41.628V43.3656H153.805V31.3154C153.805 26.3669 151.04 23.6471 146.04 23.6471ZM149.563 35.924C149.563 38.7571 147.82 40.1925 144.979 40.1925C143.047 40.1925 142.062 39.4748 142.062 38.0016C142.062 36.4528 143.199 35.6217 145.509 35.5085L149.563 35.2439V35.924Z" fill="black"/>
</g>
</svg>
