<svg width="50" height="50" viewBox="0 0 50 50" fill="none" xmlns="http://www.w3.org/2000/svg">
<path d="M17.1875 47.1094V36.3281L9.14062 42.2656C11.4062 44.375 14.1406 46.0156 17.1875 47.1094ZM32.8125 47.1094C35.8594 46.0156 38.5937 44.375 40.8594 42.2656L32.8125 36.25V47.1094ZM2.89062 32.8125C3.125 33.5937 3.4375 34.2969 3.82812 35.0781L6.875 32.8125H2.89062ZM43.125 32.8125L46.1719 35.0781C46.4844 34.375 46.7969 33.5937 47.1094 32.8125H43.125Z" fill="#2A5F9E"/>
<path d="M18.3594 29.6875H2.03125C2.26562 30.7812 2.57812 31.7969 2.89062 32.8125H6.875L3.82812 35.0781C4.45312 36.4062 5.15625 37.5781 6.01562 38.75L14.0625 32.8125H17.1875V34.375L8.04687 41.0937L9.14062 42.1875L17.1875 36.3281V47.1094C18.2031 47.5 19.2187 47.7344 20.3125 47.9687V29.6875H18.3594ZM47.9687 29.6875H29.6875V47.9687C30.7812 47.7344 31.7969 47.4219 32.8125 47.1094V36.3281L40.8594 42.1875C41.9531 41.1719 42.8906 40.0781 43.8281 38.9062L35.4687 32.8125H40.7812L45.5469 36.3281C45.7812 35.9375 46.0156 35.4687 46.1719 35.0781L43.125 32.8125H47.1094C47.4219 31.7969 47.7344 30.7812 47.9687 29.6875Z" fill="white"/>
<path d="M6.01562 38.75C6.64062 39.6094 7.26562 40.3906 7.96875 41.1719L17.1875 34.4531V32.8906H14.0625L6.01562 38.75ZM35.5469 32.8125L43.9062 38.9062C44.2187 38.5156 44.4531 38.125 44.7656 37.7344C44.8437 37.6562 44.8437 37.5781 44.9219 37.5781C45.1562 37.1875 45.4687 36.7187 45.7031 36.3281L40.7812 32.8125H35.5469Z" fill="#ED4C5C"/>
<path d="M32.8125 2.89062V13.6719L40.8594 7.73437C38.5937 5.625 35.8594 3.98437 32.8125 2.89062ZM17.1875 2.89062C14.1406 3.98437 11.4062 5.625 9.14062 7.73437L17.1875 13.75V2.89062ZM47.1094 17.1875C46.875 16.4062 46.5625 15.7031 46.1719 14.9219L43.125 17.1875H47.1094ZM6.875 17.1875L3.82812 14.9219C3.51562 15.7031 3.20312 16.4062 2.89062 17.1875H6.875Z" fill="#2A5F9E"/>
<path d="M31.6406 20.3125H47.8906C47.6563 19.2187 47.3438 18.2031 47.0313 17.1875H43.0469L46.0938 14.9219C45.4688 13.5937 44.7656 12.4219 43.9063 11.25L35.9375 17.1875H32.8125V15.625L41.9531 8.90625L40.8594 7.8125L32.8125 13.6719V2.89062C31.7969 2.5 30.7813 2.26562 29.6875 2.03125V20.3125H31.6406ZM2.03125 20.3125H20.3125V2.03125C19.2188 2.26562 18.2031 2.57812 17.1875 2.89062V13.6719L9.14063 7.8125C8.04688 8.82812 7.10938 9.92187 6.17188 11.0937L14.5313 17.1875H9.21875L4.45313 13.6719C4.21875 14.0625 3.98438 14.5312 3.82813 14.9219L6.875 17.1875H2.89063C2.57813 18.2031 2.26563 19.2187 2.03125 20.3125Z" fill="white"/>
<path d="M43.9844 11.25C43.3594 10.3906 42.7344 9.60937 42.0313 8.82812L32.8125 15.5469V17.1094H35.9375L43.9844 11.25ZM14.4531 17.1875L6.17188 11.0937C5.85938 11.4844 5.625 11.875 5.3125 12.2656C5.23438 12.3437 5.23438 12.4219 5.15625 12.4219C4.92188 12.8125 4.60938 13.2812 4.375 13.6719L9.14063 17.1875H14.4531Z" fill="#ED4C5C"/>
<path d="M47.9688 20.3125H29.6875V2.03125C28.2031 1.71875 26.6406 1.5625 25 1.5625C23.3594 1.5625 21.7969 1.71875 20.3125 2.03125V20.3125H2.03125C1.71875 21.7969 1.5625 23.3594 1.5625 25C1.5625 26.6406 1.71875 28.2031 2.03125 29.6875H20.3125V47.9688C21.7969 48.2812 23.3594 48.4375 25 48.4375C26.6406 48.4375 28.2031 48.2812 29.6875 47.9688V29.6875H47.9688C48.2812 28.2031 48.4375 26.6406 48.4375 25C48.4375 23.3594 48.2812 21.7969 47.9688 20.3125Z" fill="#ED4C5C"/>
</svg>
