<svg width="137" height="137" viewBox="0 0 137 137" fill="none" xmlns="http://www.w3.org/2000/svg">
<path d="M76.446 75.5829C76.5035 75.4774 76.5501 75.3665 76.6008 75.2582L94.9985 35.2734C95.1492 34.9474 95.3013 34.6227 95.4493 34.2952C95.5013 34.1829 95.5534 34.0843 95.7041 34.0856H96.7686C96.6836 34.2911 96.6316 34.4432 96.5603 34.5898C90.0008 48.8908 83.4417 63.1913 76.883 77.4913C76.6213 78.0613 76.3514 78.6298 76.0994 79.2038C75.8774 79.7107 75.9103 80.2039 76.2775 80.6341C76.4372 80.8349 76.6512 80.9855 76.8941 81.0681C77.137 81.1507 77.3985 81.1617 77.6475 81.0999C78.1955 80.9889 78.4695 80.6094 78.6832 80.1409C85.229 65.8956 91.7726 51.6531 98.3139 37.4134C98.9386 36.0543 99.5469 34.6912 100.191 33.3376C100.544 32.5868 100.258 31.5306 99.2715 31.3264V31.236H94.3313C94.3361 31.2499 94.3379 31.2647 94.3365 31.2794C94.335 31.294 94.3305 31.3082 94.3231 31.321C93.7861 31.4388 93.5011 31.8183 93.2805 32.28C92.5499 33.871 91.8192 35.4616 91.0885 37.0517C85.8935 48.3898 80.693 59.7252 75.487 71.0578C75.413 71.2208 75.3349 71.3811 75.2459 71.5702C75.0404 71.4332 75.0376 71.2058 74.9266 71.0455C74.5458 70.4975 74.639 69.992 74.9143 69.3933C80.2738 57.7364 85.6168 46.0727 90.9433 34.4021C91.1105 34.0349 91.2831 33.6691 91.4488 33.3061C91.8407 32.4348 91.4228 31.5635 90.4981 31.3127C90.4936 31.2866 90.4833 31.2618 90.4679 31.2401H85.625C85.6325 31.2683 85.6285 31.2984 85.614 31.3237C85.0797 31.4319 84.7632 31.7854 84.5468 32.258C83.712 34.0801 82.8758 35.9013 82.0383 37.7216L71.0304 61.6966C70.9797 61.8048 70.9276 61.9117 70.8591 62.0514C70.6372 61.8158 70.5851 61.5144 70.4344 61.2746C70.1522 60.828 70.1974 60.4294 70.4207 59.9457C74.4522 51.2152 78.4708 42.4792 82.4767 33.7376C82.648 33.365 82.7768 32.9937 82.6822 32.5704C82.6293 32.297 82.4921 32.0471 82.2899 31.8557C82.0876 31.6643 81.8306 31.541 81.5547 31.5032C81.3911 31.4837 81.2263 31.476 81.0615 31.4799C79.8038 31.4799 78.5462 31.5032 77.2899 31.4703C76.4761 31.4484 75.9733 31.7964 75.6459 32.5197C73.4393 37.3458 71.224 42.1695 69 46.991C68.2136 48.7035 67.4273 50.416 66.6409 52.1285C66.5861 52.2505 66.5203 52.3669 66.4299 52.5464C66.2107 52.0669 66.0189 51.6367 65.8148 51.2051C65.7394 51.0394 65.8559 50.9174 65.9148 50.7941C66.5642 49.3639 67.2167 47.9354 67.8725 46.5088C69.8526 42.1851 71.8323 37.8609 73.8115 33.5363C74.0855 32.9417 74.0046 32.3512 73.5964 31.9101C73.484 31.7786 73.3448 31.6727 73.1882 31.5994C73.0315 31.5262 72.861 31.4873 72.6881 31.4854C71.2057 31.4854 69.7234 31.473 68.241 31.4854C67.604 31.4854 67.1916 31.8621 66.9341 32.4224L65.4545 35.6433C64.3886 37.9668 63.3214 40.2881 62.2528 42.607C62.1993 42.7248 62.1761 42.8673 62.0267 42.9536L60.9184 40.552C59.7142 37.9298 58.5003 35.3104 57.3139 32.68C57.0399 32.0621 56.7166 31.5196 56.0686 31.2401H55.4398C55.3261 31.3881 55.1356 31.4128 54.9931 31.5141C54.5287 31.8484 54.2958 32.2854 54.3657 32.8636C54.4071 33.0689 54.4796 33.2666 54.5808 33.4499C56.4988 37.6385 58.4168 41.8257 60.3348 46.0115C60.3989 46.1267 60.4338 46.2559 60.4364 46.3877C60.439 46.5196 60.4093 46.65 60.3498 46.7677C58.0199 51.8175 55.6973 56.8696 53.382 61.924C53.3469 62.0375 53.2843 62.1406 53.1998 62.2241C53.0863 62.0748 52.9975 61.9083 52.9368 61.7309C48.4733 52.0148 44.0103 42.2979 39.5478 32.58C39.4785 32.4147 39.396 32.2553 39.3012 32.1032C38.8902 31.4895 38.1449 31.2812 37.5325 31.61C36.8201 31.9882 36.5543 32.706 36.8626 33.4321C36.916 33.5568 36.9749 33.6774 37.0297 33.8007L51.7545 65.9409C51.8126 66.0812 51.878 66.2183 51.9504 66.3519C52.508 67.3109 53.7588 67.3355 54.3547 66.408C54.4608 66.2278 54.5546 66.0406 54.6356 65.8477L61.8075 50.279C61.8628 50.1175 61.9442 49.9661 62.0486 49.831C62.2583 50.1311 62.3514 50.4818 62.5295 50.79C62.6747 51.0394 62.6405 51.2545 62.5227 51.5052C61.9007 52.8327 61.2897 54.1671 60.6841 55.4987C58.4921 60.2691 56.3001 65.0394 54.1081 69.8097C54.0131 69.997 53.9631 70.2038 53.9619 70.4138C53.9607 70.6238 54.0084 70.8311 54.1013 71.0195C54.2177 71.2633 54.3287 71.5085 54.4397 71.7538C55.0247 73.0484 55.6124 74.3417 56.1905 75.6391C56.3851 76.0747 56.6782 76.3885 57.1495 76.509C57.9071 76.7022 58.5346 76.4036 58.8771 75.6692C59.5895 74.1362 60.2923 72.6004 60.9992 71.0647C62.7346 67.2871 64.4726 63.5105 66.2134 59.7348C66.2696 59.6128 66.2888 59.4608 66.4518 59.3813C66.5984 59.7005 66.7162 60.0101 66.8765 60.2951C67.0368 60.58 67.0053 60.8061 66.8765 61.0897C64.1228 67.0784 61.3728 73.0708 58.6264 79.0668C58.5579 79.2162 58.4825 79.3641 58.4291 79.5189C58.3618 79.6988 58.3339 79.891 58.3472 80.0826C58.3605 80.2741 58.4148 80.4606 58.5064 80.6294C58.5979 80.7982 58.7246 80.9454 58.8779 81.0611C59.0312 81.1768 59.2075 81.2582 59.395 81.2999C60.0594 81.4712 60.68 81.1629 60.9979 80.4779C61.7285 78.9024 62.4528 77.326 63.1707 75.7487C64.8951 71.9985 66.6203 68.2489 68.3465 64.4996C68.4096 64.3626 68.4287 64.1859 68.6123 64.1051C68.7205 64.3366 68.8219 64.5531 68.9219 64.7695C69.1288 65.2175 69.322 65.6737 69.5467 66.1121C69.6566 66.3443 69.8296 66.5409 70.0459 66.6795C70.2623 66.818 70.5132 66.893 70.7701 66.8958C71.3331 66.9163 71.7291 66.6218 72.0168 66.1546C72.0973 66.0111 72.17 65.8634 72.2346 65.7121L85.7072 36.442C86.0259 35.7488 86.3456 35.056 86.6662 34.3637C86.7292 34.2267 86.7717 34.0774 86.9689 34.0897C87.295 34.1048 87.6238 34.061 87.9567 34.1185C87.9704 34.3555 87.8334 34.5295 87.7499 34.7117C83.4882 44.0113 79.2239 53.309 74.9568 62.6049C73.8836 64.943 72.81 67.2807 71.7359 69.6179C71.6471 69.7833 71.5963 69.9664 71.5873 70.1539C71.5783 70.3414 71.6113 70.5285 71.6839 70.7016C72.4145 72.3264 73.1479 73.9481 73.8841 75.5665C74.1348 76.1145 74.5924 76.3542 75.1842 76.3583C75.4473 76.3667 75.7071 76.2977 75.9314 76.1599C76.1557 76.022 76.3346 75.8214 76.446 75.5829ZM63.7324 46.0759C64.3032 44.8264 64.8777 43.5774 65.4558 42.3289C66.6327 39.7766 67.815 37.227 68.9767 34.6679C69.1137 34.3583 69.2836 34.235 69.6138 34.2733C69.8794 34.2874 70.1455 34.2874 70.4111 34.2733L64.2269 47.7541C64.0023 47.2678 63.8255 46.8773 63.6433 46.491C63.568 46.3293 63.6789 46.206 63.7379 46.0759H63.7324ZM64.7284 56.2796C63.9064 58.0743 63.0844 59.8672 62.2624 61.6582C60.8001 64.8494 59.337 68.0434 57.8729 71.24C57.7934 71.414 57.7112 71.5853 57.6057 71.8113C57.576 71.78 57.5485 71.7466 57.5235 71.7113C57.3331 71.2893 57.0303 70.8797 56.9865 70.4427C56.9454 70.0317 57.2838 69.6467 57.4633 69.2549C59.6315 64.5065 61.8034 59.7617 63.979 55.0206C64.035 54.8463 64.1285 54.6863 64.253 54.5521C64.4585 55.0014 64.664 55.4302 64.8503 55.8618C64.9161 56.0207 64.801 56.1481 64.7338 56.2796H64.7284ZM68.6082 57.2989C68.389 56.8249 68.2178 56.444 68.0355 56.0659C67.9396 55.8673 68.0534 55.7166 68.126 55.559C68.8301 54.0219 69.5371 52.4866 70.2467 50.9531C72.7346 45.5461 75.2221 40.1387 77.7091 34.7309C77.753 34.6364 77.8023 34.5432 77.8461 34.4459C77.8656 34.3906 77.9033 34.3434 77.9531 34.3123C78.0029 34.2812 78.0618 34.2679 78.1201 34.2747H79.1682L68.6082 57.2989Z" fill="#990D81"/>
<path d="M22.6859 93.1929L18.9348 103.419L17.7525 106.556C17.7374 106.598 15.3797 106.685 15.3797 106.685C15.3708 106.627 15.3571 106.569 15.3386 106.513C14.2462 103.812 13.152 101.111 12.056 98.4099C12.0245 98.3318 12.0108 98.2386 11.9081 98.2153C11.8915 98.2409 11.8764 98.2674 11.8629 98.2948L8.4639 106.685H6.1349C6.16641 106.509 6.06366 106.367 6.00886 106.216C5.3887 104.545 4.76809 102.877 4.14703 101.214C3.30037 98.9309 2.45325 96.6503 1.60568 94.3725L1.59472 94.3423L1.23304 93.3792L1.17139 93.2121C2.16327 93.2121 3.15789 93.2121 4.14977 93.1874C4.41144 93.1874 4.47172 93.3244 4.54433 93.519C5.22385 95.3064 5.90656 97.0933 6.59248 98.8798C6.85004 99.5456 7.10623 100.211 7.39804 100.969C7.48161 100.78 7.53504 100.668 7.58025 100.558C8.52372 98.2409 9.46765 95.9265 10.412 93.6149C10.6121 93.1272 10.5066 93.2039 11.0546 93.1943H13.1192C13.5151 93.1943 13.5165 93.1943 13.6672 93.5669C14.5686 95.8767 15.4696 98.1875 16.3702 100.499C16.4222 100.636 16.4839 100.773 16.5729 100.981C16.651 100.798 16.7099 100.685 16.7483 100.57L19.5129 93.6121C19.6787 93.1929 19.6801 93.1929 20.1103 93.1929H22.6859Z" fill="#990D81"/>
<path d="M53.9465 101.753C53.9465 98.9862 53.9465 96.2192 53.9465 93.4518C53.9465 93.0545 53.9465 93.0518 53.5574 93.0504C52.7354 93.0504 51.9134 93.071 51.0914 93.0395C50.701 93.0244 50.4831 93.1422 50.2831 93.4916C49.0268 95.6836 47.7445 97.8605 46.4677 100.04C46.3896 100.177 46.3402 100.333 46.1717 100.428C46.0827 100.276 46.0046 100.154 45.9334 100.017C44.7004 97.8084 43.4756 95.6027 42.2604 93.3874C42.2139 93.2725 42.1309 93.1759 42.0243 93.1126C41.9176 93.0492 41.7932 93.0226 41.6699 93.0367C40.7726 93.0586 39.8752 93.0367 38.9779 93.0463C38.4025 93.0463 38.4559 92.9778 38.4559 93.5779C38.4559 97.6614 38.4559 101.745 38.4559 105.828C38.4559 106.112 38.4627 106.397 38.4669 106.681H41.3439V98.6729C41.4891 98.703 41.5096 98.7976 41.5494 98.8702C42.9522 101.372 44.3542 103.874 45.7553 106.376C45.788 106.443 45.8164 106.511 45.8402 106.581C45.9703 106.659 46.0238 106.568 46.0799 106.474L46.9718 104.967C48.1592 102.957 49.3488 100.952 50.5407 98.951C50.6039 98.7925 50.7114 98.6555 50.8503 98.5565V98.9209C50.8503 101.343 50.8503 103.763 50.8503 106.182C50.8503 106.346 50.8585 106.511 50.8626 106.675H53.9177C53.9575 106.515 53.9682 106.35 53.9492 106.186C53.9483 104.712 53.9474 103.234 53.9465 101.753Z" fill="#990D81"/>
<path d="M35.9515 103.983C33.1841 103.983 30.4163 103.983 27.6479 103.983C27.226 103.983 27.2232 103.983 27.2219 103.582C27.2219 102.864 27.2219 102.144 27.2219 101.427C27.2219 101.038 27.2219 101.036 27.6123 101.032H27.8356C29.5865 101.032 31.3374 101.032 33.0882 101.032C33.4334 101.032 33.4389 101.032 33.4403 100.694C33.4403 100.051 33.4403 99.4072 33.4403 98.7633C33.4403 98.3427 33.4403 98.3797 33.0389 98.377C31.9922 98.3701 30.9442 98.377 29.8975 98.377C29.1193 98.377 28.3412 98.377 27.5685 98.377C27.2342 98.377 27.2287 98.3688 27.226 98.0249C27.226 97.4262 27.226 96.8275 27.226 96.2288C27.226 95.9192 27.2342 95.9124 27.5548 95.9124H30.6071C32.3872 95.9124 34.1682 95.9124 35.9501 95.9124C36.2913 95.9124 36.2954 95.9124 36.2981 95.5657C36.2981 94.9369 36.2981 94.3081 36.2981 93.6806C36.2981 93.1751 36.3584 93.2011 35.8118 93.2011C32.1009 93.2011 28.3905 93.2011 24.6805 93.2011C24.0106 93.2011 24.101 93.1271 24.101 93.7628C24.101 98.071 24.101 102.38 24.101 106.69H36.4968C36.4968 105.972 36.5132 105.254 36.5132 104.537C36.505 103.904 36.5708 103.99 35.9515 103.983Z" fill="#990D81"/>
<path d="M129.617 98.3454C131.688 96.6055 133.759 94.8643 135.829 93.1216V93.0326C134.596 93.0326 133.375 93.0545 132.149 93.0408C131.823 93.0288 131.504 93.1409 131.257 93.3545C129.378 94.8862 127.493 96.4087 125.6 97.9221C125.493 98.0071 125.413 98.1632 125.214 98.1167V97.7536C125.214 96.3014 125.214 94.8497 125.214 93.3984C125.214 93.0573 125.207 93.0518 124.865 93.0504C124.056 93.0504 123.248 93.0504 122.441 93.0504C122.096 93.0504 122.096 93.0504 122.088 93.3943V93.6683V105.206C122.088 105.565 122.097 105.926 122.088 106.283C122.079 106.512 122.153 106.598 122.392 106.596C123.23 106.583 124.067 106.585 124.906 106.596C125.129 106.596 125.249 106.541 125.221 106.296C125.215 106.204 125.215 106.113 125.221 106.022C125.221 104.779 125.221 103.536 125.221 102.295C125.221 102.158 125.185 101.995 125.334 101.884C125.839 101.511 126.341 101.134 126.841 100.754C126.86 100.736 126.883 100.722 126.907 100.714C126.932 100.706 126.959 100.704 126.984 100.708C127.01 100.712 127.035 100.722 127.056 100.738C127.077 100.753 127.094 100.773 127.106 100.796C127.161 100.868 127.218 100.933 127.276 101.006C128.729 102.775 130.181 104.545 131.632 106.315C131.695 106.404 131.78 106.477 131.878 106.524C131.977 106.572 132.086 106.594 132.195 106.589C133.243 106.574 134.291 106.589 135.338 106.579C135.431 106.579 135.548 106.637 135.612 106.516C135.554 106.378 135.467 106.254 135.357 106.152C133.423 103.753 131.487 101.355 129.55 98.9565C129.283 98.6263 129.217 98.6811 129.617 98.3454Z" fill="#990D81"/>
<path d="M69.3509 104.978C67.5562 101.199 65.7656 97.4198 63.9791 93.6395C63.812 93.2833 63.6216 93.16 63.2393 93.1847C62.7019 93.2176 62.1629 93.2176 61.6255 93.1847C61.2638 93.1641 61.0775 93.2806 60.9213 93.6217C59.4732 96.7864 58.0018 99.9401 56.5373 103.099C55.9893 104.291 55.4413 105.489 54.9001 106.683H57.8635C58.3608 105.678 58.8622 104.676 59.3472 103.669C59.4527 103.451 59.5992 103.414 59.8116 103.416H63.6736H64.9313C65.0047 103.407 65.0788 103.423 65.1424 103.461C65.2059 103.498 65.2555 103.556 65.2834 103.624C65.7656 104.604 66.2574 105.578 66.7438 106.556C66.7558 106.6 66.7599 106.647 66.7561 106.693H70.0797C70.1455 106.556 70.0469 106.467 69.9989 106.364C69.7879 105.901 69.5687 105.437 69.3509 104.978ZM60.5267 101.005L62.3639 97.407C62.9927 98.6578 63.5709 99.8127 64.1737 101.013L60.5267 101.005Z" fill="#990D81"/>
<path d="M87.7678 99.7771C87.6226 99.6799 87.4431 99.6265 87.3335 99.4826C87.3444 99.4579 87.3472 99.4429 87.3568 99.4346C87.4157 99.3881 87.4746 99.3429 87.5349 99.2976C88.2966 98.7496 88.746 98.0181 88.809 97.0782C88.946 95.1342 87.987 93.693 86.1114 93.2327C85.5272 93.1009 84.9293 93.0397 84.3304 93.0505C81.6361 93.0505 78.9418 93.0505 76.2474 93.0505C75.8529 93.0505 75.8474 93.0505 75.8474 93.4382C75.8474 97.6888 75.8474 101.94 75.8474 106.191C75.8474 106.582 75.8474 106.582 76.2406 106.586H76.4201C78.9354 106.586 81.4503 106.586 83.9647 106.586C84.5034 106.589 85.0418 106.561 85.5772 106.501C87.7322 106.253 89.3433 104.789 89.2309 102.365C89.2213 101.846 89.0824 101.338 88.827 100.886C88.5715 100.434 88.2075 100.053 87.7678 99.7771ZM78.9724 96.1261C78.9724 95.7987 78.9806 95.7877 79.2847 95.7877C80.8849 95.7877 82.486 95.79 84.088 95.7946C84.3876 95.7907 84.6861 95.8327 84.973 95.9192C85.4867 96.0836 85.7114 96.4248 85.7032 97.0152C85.695 97.5728 85.4566 97.9057 84.9607 98.0592C84.5984 98.1548 84.224 98.1963 83.8496 98.1825C83.1755 98.1893 82.5029 98.1825 81.8288 98.1825C80.9918 98.1825 80.1533 98.1825 79.3149 98.1825C78.9792 98.1825 78.9751 98.1743 78.9724 97.829C78.9687 97.2627 78.9687 96.6951 78.9724 96.1261ZM85.336 103.591C84.8058 103.836 84.2318 103.846 83.6646 103.865C83.0509 103.882 82.4316 103.865 81.8234 103.865C81.0014 103.865 80.1794 103.865 79.3574 103.865C78.9806 103.865 78.9751 103.865 78.9738 103.506C78.9738 102.742 78.9738 101.979 78.9738 101.216C78.9738 101.002 79.0436 100.931 79.2573 100.932C80.9013 100.942 82.5453 100.932 84.1893 100.951C84.5497 100.955 84.9067 101.021 85.2442 101.147C85.7813 101.349 86.0388 101.753 86.0662 102.317C86.0936 102.882 85.8786 103.342 85.336 103.591Z" fill="#990D81"/>
<path d="M119.846 93.045C119.142 93.0573 118.439 93.045 117.735 93.045C117.22 93.045 117.257 93.0025 117.257 93.5354C117.257 95.9293 117.257 98.3236 117.257 100.718C117.257 100.868 117.308 101.035 117.161 101.212C117.034 101.066 116.93 100.938 116.814 100.821C114.371 98.3313 111.93 95.8416 109.489 93.3518C109.399 93.2456 109.285 93.162 109.156 93.1075C109.028 93.0531 108.889 93.0293 108.749 93.0381C108.166 93.06 107.582 93.0381 106.998 93.045C106.45 93.045 106.479 92.9861 106.479 93.5409V106.067V106.341C106.47 106.505 106.533 106.587 106.709 106.586C107.518 106.586 108.326 106.586 109.134 106.586C109.301 106.586 109.388 106.53 109.382 106.356C109.382 106.235 109.382 106.116 109.382 105.996C109.382 103.587 109.382 101.178 109.382 98.7674C109.362 98.6056 109.373 98.4412 109.416 98.2838C109.57 98.2989 109.627 98.4208 109.707 98.4962C110.245 99.036 110.78 99.5812 111.317 100.124C113.355 102.19 115.394 104.257 117.432 106.326C117.509 106.414 117.606 106.484 117.714 106.53C117.822 106.576 117.94 106.596 118.057 106.589C118.605 106.571 119.165 106.589 119.719 106.589C120.156 106.589 120.156 106.589 120.16 106.148V93.6176C120.16 93.5272 120.153 93.4368 120.16 93.3436C120.182 93.1135 120.078 93.0408 119.846 93.045Z" fill="#990D81"/>
<path d="M102.327 100.764C101.159 98.3058 99.994 95.848 98.8304 93.3902C98.7139 93.1422 98.5797 93.0313 98.2947 93.0422C97.6823 93.0641 97.0617 93.0669 96.4562 93.0422C96.1561 93.0299 96.0096 93.1285 95.8835 93.4025C93.9199 97.6641 91.9502 101.923 89.9747 106.179C89.9213 106.296 89.8185 106.404 89.8802 106.59H92.5531C92.7736 106.59 92.827 106.441 92.8942 106.297C93.3422 105.401 93.7998 104.516 94.2327 103.606C94.2729 103.497 94.349 103.405 94.4486 103.344C94.5481 103.284 94.6651 103.259 94.7807 103.273C96.411 103.286 98.0413 103.288 99.6716 103.273C99.9839 103.273 100.148 103.361 100.284 103.651C100.703 104.543 101.159 105.419 101.602 106.3C101.675 106.446 101.724 106.593 101.943 106.592C102.96 106.582 103.976 106.592 105.027 106.592C105.017 106.437 104.97 106.288 104.89 106.156C104.034 104.356 103.18 102.558 102.327 100.764ZM95.5273 100.901C95.5616 100.599 96.8973 97.9235 97.3083 97.3385L99.0989 100.901H95.5273Z" fill="#990D81"/>
</svg>
