<svg width="50" height="50" viewBox="0 0 50 50" fill="none" xmlns="http://www.w3.org/2000/svg">
<g clip-path="url(#clip0_306_225)">
<path d="M25.0001 2.77783C20.6049 2.77783 16.3085 4.08114 12.6541 6.52295C8.99963 8.96476 6.15136 12.4354 4.46941 16.496C2.78746 20.5566 2.34739 25.0247 3.20484 29.3354C4.06229 33.6461 6.17875 37.6057 9.28658 40.7135C12.3944 43.8214 16.354 45.9378 20.6647 46.7953C24.9754 47.6527 29.4436 47.2127 33.5041 45.5307C37.5647 43.8488 41.0354 41.0005 43.4772 37.3461C45.919 33.6916 47.2223 29.3952 47.2223 25.0001C47.2223 19.1064 44.881 13.454 40.7135 9.28657C36.5461 5.1191 30.8938 2.77783 25.0001 2.77783ZM35.3056 37.7223C33.3287 38.954 31.0938 39.712 28.7754 39.9372C26.4571 40.1623 24.1181 39.8485 21.9411 39.0202C19.7641 38.1919 17.8081 36.8715 16.2258 35.1622C14.6434 33.453 13.4777 31.401 12.8195 29.1667H8.11118C7.74282 29.1667 7.38955 29.0204 7.12908 28.7599C6.86862 28.4995 6.72229 28.1462 6.72229 27.7778C6.72229 27.4095 6.86862 27.0562 7.12908 26.7957C7.38955 26.5353 7.74282 26.3889 8.11118 26.3889H12.2778C12.2778 25.9028 12.2084 25.4028 12.2084 24.9028V23.6112H8.04173C7.67337 23.6112 7.32011 23.4648 7.05964 23.2044C6.79917 22.9439 6.65284 22.5906 6.65284 22.2223C6.65284 21.8539 6.79917 21.5007 7.05964 21.2402C7.32011 20.9797 7.67337 20.8334 8.04173 20.8334H12.764C13.3927 18.5777 14.538 16.4994 16.1092 14.7631C17.6804 13.0268 19.6342 11.6802 21.816 10.8298C23.9978 9.97946 26.3476 9.64878 28.6794 9.86395C31.0111 10.0791 33.2607 10.8342 35.2501 12.0695C35.618 12.3227 35.8741 12.708 35.9652 13.1453C36.0564 13.5825 35.9755 14.038 35.7394 14.4172C35.5034 14.7963 35.1303 15.0699 34.6977 15.181C34.2651 15.2922 33.8063 15.2323 33.4167 15.0139C31.9555 14.1081 30.3114 13.5381 28.6031 13.345C26.8948 13.1519 25.1649 13.3405 23.5384 13.8973C21.9119 14.4541 20.4293 15.3651 19.1977 16.5646C17.9661 17.7641 17.0163 19.2221 16.4167 20.8334H29.4167C29.7851 20.8334 30.1384 20.9797 30.3988 21.2402C30.6593 21.5007 30.8056 21.8539 30.8056 22.2223C30.8056 22.5906 30.6593 22.9439 30.3988 23.2044C30.1384 23.4648 29.7851 23.6112 29.4167 23.6112H15.7362C15.6157 24.5332 15.6157 25.4669 15.7362 26.3889H29.3751C29.7434 26.3889 30.0967 26.5353 30.3572 26.7957C30.6176 27.0562 30.764 27.4095 30.764 27.7778C30.764 28.1462 30.6176 28.4995 30.3572 28.7599C30.0967 29.0204 29.7434 29.1667 29.3751 29.1667H16.4862C17.1139 30.7515 18.0829 32.1786 19.3243 33.3468C20.5657 34.5149 22.0491 35.3954 23.6691 35.9256C25.2891 36.4559 27.006 36.623 28.6979 36.415C30.3897 36.2071 32.0151 35.6291 33.4584 34.7223C33.6517 34.601 33.8671 34.519 34.0921 34.4809C34.3171 34.4428 34.5475 34.4494 34.7699 34.5004C34.9924 34.5513 35.2027 34.6456 35.3887 34.7778C35.5748 34.91 35.7329 35.0776 35.8542 35.2709C35.9755 35.4642 36.0575 35.6796 36.0956 35.9046C36.1337 36.1296 36.1271 36.36 36.0761 36.5824C36.0252 36.8049 35.9309 37.0152 35.7987 37.2012C35.6665 37.3872 35.499 37.5454 35.3056 37.6667V37.7223Z" fill="#2F80ED"/>
</g>
<defs>
<clipPath id="clip0_306_225">
<rect width="50" height="50" fill="white"/>
</clipPath>
</defs>
</svg>
