<svg width="50" height="50" viewBox="0 0 50 50" fill="none" xmlns="http://www.w3.org/2000/svg">
<path d="M25 1.5625C14.7656 1.5625 6.09375 8.04688 2.89062 17.1875H47.1094C43.9062 8.04688 35.2344 1.5625 25 1.5625Z" fill="#C94747"/>
<path d="M25 48.4375C35.2344 48.4375 43.9062 41.9531 47.1094 32.8125H2.89062C6.09375 41.9531 14.7656 48.4375 25 48.4375Z" fill="#699635"/>
<path d="M2.89062 17.1875C2.03125 19.6094 1.5625 22.2656 1.5625 25C1.5625 27.7344 2.03125 30.3906 2.89062 32.8125H47.1094C47.9688 30.3906 48.4375 27.7344 48.4375 25C48.4375 22.2656 47.9688 19.6094 47.1094 17.1875H2.89062Z" fill="#FFCE31"/>
<path d="M25 29.1406L29.8438 32.8125L27.9687 26.875L32.8125 23.0469H26.875L25 17.1875L23.2031 23.0469H17.1875L22.0313 26.875L20.1562 32.8125L25 29.1406Z" fill="#3E4347"/>
</svg>
