<svg width="137" height="137" viewBox="0 0 137 137" fill="none" xmlns="http://www.w3.org/2000/svg">
<path d="M26.4964 117.774V113.697H24.2271L24.2691 114.643H25.3197V117.059C25.3197 117.059 24.6894 117.206 24.2271 117.206C23.5547 117.206 22.7983 116.828 22.7983 114.475C22.7983 112.163 23.7858 111.743 24.6053 111.743C25.4038 111.743 26.2443 112.1 26.2443 112.1V111.155C26.2443 111.155 25.5509 110.777 24.6053 110.777C23.3026 110.777 21.6216 111.302 21.6216 114.517C21.6216 117.732 22.8823 118.173 24.1431 118.173C25.1516 118.194 26.2653 117.837 26.4964 117.774ZM32.4849 118.068V112.626H31.3082V116.702C31.3082 116.702 30.6569 117.164 30.0685 117.164C29.6062 117.164 29.3961 116.975 29.3961 116.387V112.626H28.2194V116.576C28.2194 117.774 28.8708 118.173 29.7323 118.173C30.6358 118.173 31.3503 117.417 31.3503 117.417L31.4973 118.068C31.5184 118.068 32.4849 118.068 32.4849 118.068ZM38.1162 118.068V114.286C38.1162 112.794 37.2757 112.521 36.2461 112.521C35.3006 112.521 34.4601 112.815 34.4601 112.815V113.781C34.5651 113.76 35.4266 113.487 36.036 113.487C36.6033 113.487 36.9395 113.55 36.9395 114.202V114.706H36.015C35.1535 114.706 33.9558 114.958 33.9558 116.45C33.9558 117.921 34.8593 118.194 35.5317 118.194C36.4773 118.194 36.9605 117.522 36.9605 117.522L37.0866 118.089H38.1162V118.068ZM36.9395 116.849C36.9395 116.849 36.4562 117.269 35.8889 117.269C35.4687 117.269 35.1325 117.122 35.1325 116.387C35.1325 115.589 35.5527 115.399 36.3932 115.378H36.9395V116.849ZM42.5708 113.781V112.605C42.5708 112.605 42.3187 112.542 42.0455 112.542C41.2681 112.542 40.9529 113.277 40.9529 113.277L40.7848 112.647H39.8602V118.089H41.0369V114.013C41.0369 114.013 41.3311 113.697 41.8144 113.697C42.1716 113.676 42.5708 113.781 42.5708 113.781ZM47.0674 118.068V114.286C47.0674 112.794 46.227 112.521 45.1973 112.521C44.2518 112.521 43.4113 112.815 43.4113 112.815V113.781C43.5164 113.76 44.3779 113.487 44.9872 113.487C45.5546 113.487 45.8908 113.55 45.8908 114.202V114.706H44.9662C44.1047 114.706 42.907 114.958 42.907 116.45C42.907 117.921 43.8105 118.194 44.4829 118.194C45.4285 118.194 45.9118 117.522 45.9118 117.522L46.0378 118.089H47.0674V118.068ZM45.9118 116.849C45.9118 116.849 45.4285 117.269 44.8612 117.269C44.4409 117.269 44.1047 117.122 44.1047 116.387C44.1047 115.589 44.525 115.399 45.3654 115.378H45.9118V116.849ZM53.3291 118.068V114.16C53.3291 112.92 52.7197 112.542 51.7952 112.542C50.8286 112.542 50.0092 113.277 50.0092 113.277L49.799 112.647H48.8745V118.089H50.0512V114.013C50.0512 114.013 50.7236 113.55 51.417 113.55C51.8372 113.55 52.1734 113.613 52.1734 114.181V118.068C52.1524 118.068 53.3291 118.068 53.3291 118.068ZM57.7207 117.984V117.038C57.7207 117.038 57.0693 117.227 56.7751 117.227C56.523 117.227 56.3339 117.164 56.3339 116.765V113.466H57.4475L57.5736 112.626H56.3339V110.987L55.2412 111.407L55.1782 112.626H54.2536V113.466H55.1782V116.765C55.1782 117.942 55.7665 118.194 56.544 118.194C57.1533 118.194 57.7207 117.984 57.7207 117.984ZM62.6375 112.626H61.3558L60.3892 116.723L59.1705 112.626H57.8257L59.8849 117.984L59.8219 118.278C59.6748 118.908 59.4437 119.182 59.0654 119.182C58.7713 119.182 58.0989 119.035 58.0989 119.035V119.959C58.0989 119.959 58.6662 120.127 59.1495 120.127C59.8009 120.127 60.4523 119.938 60.7885 118.782L62.6375 112.626ZM70.1809 110.882H65.5162V111.932H67.2602V118.068H68.4369V111.932H70.0549L70.1809 110.882ZM73.1227 113.781V112.605C73.1227 112.605 72.8705 112.542 72.5974 112.542C71.8199 112.542 71.5047 113.277 71.5047 113.277L71.3576 112.647H70.4331V118.089H71.6098V114.013C71.6098 114.013 71.9039 113.697 72.3872 113.697C72.7234 113.676 73.1227 113.781 73.1227 113.781ZM78.3757 118.068V112.626H77.199V116.702C77.199 116.702 76.5477 117.164 75.9593 117.164C75.497 117.164 75.2869 116.975 75.2869 116.387V112.626H74.1102V116.576C74.1102 117.774 74.7616 118.173 75.6231 118.173C76.5266 118.173 77.2411 117.417 77.2411 117.417L77.3881 118.068C77.4092 118.068 78.3757 118.068 78.3757 118.068ZM83.1875 116.513C83.1875 115.567 82.6412 115.168 82.0739 114.958L81.5486 114.769C81.1914 114.643 80.8342 114.538 80.8342 114.076C80.8342 113.634 81.1704 113.487 81.7167 113.487C82.221 113.487 82.9774 113.697 82.9774 113.697V112.773C82.9774 112.773 82.3891 112.542 81.6326 112.542C80.582 112.542 79.7205 112.983 79.7205 114.139C79.7205 115.105 80.4139 115.441 80.8552 115.631L81.3385 115.82C81.7377 115.988 82.0529 116.093 82.0529 116.555C82.0529 117.122 81.6116 117.206 81.1073 117.206C80.6871 117.206 79.7836 116.933 79.7836 116.933V117.921C79.7836 117.921 80.519 118.152 81.1493 118.152C82.1159 118.194 83.1875 117.963 83.1875 116.513ZM87.2219 117.984V117.038C87.2219 117.038 86.5705 117.227 86.2763 117.227C86.0032 117.227 85.8351 117.164 85.8351 116.765V113.466H86.9487L87.0748 112.626H85.8561V110.987L84.7424 111.407L84.6794 112.626H83.7549V113.466H84.6794V116.765C84.6794 117.942 85.2677 118.194 86.0452 118.194C86.6546 118.194 87.2219 117.984 87.2219 117.984ZM95.6688 116.03C95.6688 114.811 94.9124 114.475 94.198 114.349C94.8073 114.202 95.4587 113.802 95.4587 112.773C95.4587 111.176 94.4501 110.903 92.7481 110.903H91.2142V118.089H92.6851C94.5552 118.068 95.6688 117.9 95.6688 116.03ZM94.303 112.794C94.303 113.781 93.8408 113.95 92.8112 113.95H92.4119V111.785H92.7901C93.7987 111.785 94.303 111.911 94.303 112.794ZM94.5131 116.009C94.5131 117.08 93.9248 117.185 92.8322 117.185H92.4119V114.832H92.8112C93.8828 114.811 94.5131 115 94.5131 116.009ZM100.859 118.068V114.286C100.859 112.794 100.018 112.521 98.9888 112.521C98.0432 112.521 97.2027 112.815 97.2027 112.815V113.781C97.3078 113.76 98.1693 113.487 98.7997 113.487C99.367 113.487 99.7032 113.55 99.7032 114.202V114.706H98.7576C97.8961 114.706 96.6984 114.958 96.6984 116.45C96.6984 117.921 97.602 118.194 98.2743 118.194C99.2199 118.194 99.7032 117.522 99.7032 117.522L99.8293 118.089H100.859V118.068ZM99.6822 116.849C99.6822 116.849 99.1989 117.269 98.6316 117.269C98.2113 117.269 97.8541 117.122 97.8541 116.387C97.8541 115.589 98.2954 115.399 99.1148 115.378H99.6612C99.6822 115.378 99.6822 116.849 99.6822 116.849ZM107.1 118.068V114.16C107.1 112.92 106.469 112.542 105.566 112.542C104.599 112.542 103.78 113.277 103.78 113.277L103.569 112.647H102.624V118.089H103.801V114.013C103.801 114.013 104.473 113.55 105.166 113.55C105.587 113.55 105.923 113.613 105.923 114.181V118.068C105.944 118.068 107.1 118.068 107.1 118.068ZM113.256 118.068L111.428 114.916L113.046 112.626H111.659L110.251 114.958L111.932 118.173C111.911 118.194 113.256 118.068 113.256 118.068ZM108.886 118.068H110.062V110.672H108.886V118.068Z" fill="#3D4952"/>
<path d="M33.6406 94.6813H113.256V15.0658H33.6406V94.6813Z" fill="#DE4A09"/>
<path d="M50.9757 72.7445C50.5345 72.8705 48.4122 73.4589 46.5001 73.4589C44.0627 73.4589 41.6042 72.7234 41.6042 67.0081C41.6042 61.3138 44.8822 60.3682 47.3616 60.3682C49.1897 60.3682 50.4924 61.0196 50.4924 61.0196V62.7426C50.4924 62.7426 48.8955 62.1123 47.3616 62.1123C45.7647 62.1123 43.8526 62.8477 43.8526 66.9241C43.8526 71.1055 45.3024 71.7569 46.5842 71.7569C47.5087 71.7569 48.7064 71.5047 48.7064 71.5047V67.2392H46.6892L46.5842 65.5583H50.9547C50.9757 65.5373 50.9757 72.7445 50.9757 72.7445ZM52.3415 60.3682H61.734L61.4819 62.3854H58.4141V73.4379H55.9556V62.4485H52.3625V60.3682H52.3415ZM63.7512 60.4103L68.1007 60.3262C73.5849 60.3262 73.4378 66.1886 70.244 66.5458C73.711 67.0922 73.5639 72.2192 70.244 73.4169H63.7302C63.7512 73.4169 63.7512 60.4103 63.7512 60.4103ZM66.1886 62.3854V65.7264H68.4789C69.8237 65.6423 70.5171 62.7426 68.563 62.3854H66.1886ZM66.1886 67.5754V71.3366H68.4789C71.0214 71.3366 70.5171 67.6595 68.563 67.5754H66.1886ZM75.2029 64.0454C78.5228 62.5325 82.305 62.8687 82.8723 65.3692V73.4589H80.582V72.1561C78.5648 74.3414 73.774 73.9212 74.4044 69.4455C74.7826 67.3863 77.0519 66.777 80.3719 67.0081C80.7081 64.1294 76.9469 65.4742 75.2029 65.9785C75.2029 65.9995 75.2029 64.0454 75.2029 64.0454ZM77.136 69.0673C75.6862 71.5258 78.6069 72.3873 80.4139 70.4541V68.7521C79.3213 68.437 77.6403 68.4159 77.136 69.0673ZM87.6211 66.3567L87.5791 73.4589H85.0366V63.2469H87.453V64.4026C90.9831 62.3434 93.8828 62.8687 94.4501 65.9365V73.4379H91.9076V66.3567C91.4033 64.4866 88.2305 65.7053 87.6211 66.3567ZM96.3412 73.4589V60.3682H98.8627V73.4589H96.3412ZM102.372 63.2469H105.376L101.846 67.8066L105.629 73.4379H102.834L99.1148 67.6595L102.372 63.2469ZM79.1112 46.3951H99.0098V26.4965H79.1112V46.3951Z" fill="#FEFEFE"/>
</svg>
