<svg width="50" height="50" viewBox="0 0 50 50" fill="none" xmlns="http://www.w3.org/2000/svg">
<path d="M25 1.5625C15.3906 1.5625 7.10938 7.34375 3.51562 15.625H46.4844C42.8906 7.34375 34.6094 1.5625 25 1.5625Z" fill="#3E4347"/>
<path d="M25 48.4375C34.6094 48.4375 42.8906 42.6562 46.4844 34.375H3.51562C7.10938 42.6562 15.3906 48.4375 25 48.4375Z" fill="#75A843"/>
<path d="M48.4375 25C48.4375 22.8125 48.125 20.7031 47.5781 18.75H2.42187C1.875 20.7031 1.5625 22.8125 1.5625 25C1.5625 27.1875 1.875 29.2969 2.42187 31.25H47.5781C48.125 29.2969 48.4375 27.1875 48.4375 25Z" fill="#C94747"/>
<path d="M2.89062 32.8125C3.04688 33.3594 3.28125 33.8281 3.51562 34.375H46.4844C46.7187 33.8281 46.9531 33.3594 47.1094 32.8125C47.2656 32.2656 47.4219 31.7969 47.5781 31.25H2.42188C2.57812 31.7969 2.73438 32.2656 2.89062 32.8125ZM47.1094 17.1875C46.9531 16.6406 46.7187 16.1719 46.4844 15.625H3.51562C3.28125 16.1719 3.04688 16.6406 2.89062 17.1875C2.73438 17.7344 2.57812 18.2031 2.42188 18.75H47.5781C47.4219 18.2031 47.2656 17.7344 47.1094 17.1875Z" fill="white"/>
<path d="M15.7812 40.8594L16.3281 41.1719L31.4063 15.0781C32.2656 14.8437 32.7344 13.9844 33.2813 13.2031C33.5938 12.6562 34.9219 10.3906 35.4688 7.5C33.2031 9.45312 31.9531 11.6406 31.6406 12.2656C31.1719 13.125 30.7031 13.9062 30.9375 14.8437L15.7812 40.8594Z" fill="white"/>
<path d="M34.2188 40.8594L33.6719 41.1719L18.5938 15.0781C17.7344 14.8437 17.2656 13.9844 16.7188 13.2031C16.4063 12.6562 15.0781 10.3906 14.5312 7.5C16.7969 9.45312 18.0469 11.6406 18.3594 12.2656C18.8281 13.125 19.2969 13.9062 19.0625 14.8437L34.2188 40.8594Z" fill="white"/>
<path d="M31.25 25C31.25 33.5938 25 40.625 25 40.625C25 40.625 18.75 33.5938 18.75 25C18.75 16.4062 25 9.375 25 9.375C25 9.375 31.25 16.4062 31.25 25Z" fill="#C94747"/>
<path d="M20.3906 31.25C21.7188 29.9219 22.6562 27.6562 22.6562 25C22.6562 22.3438 21.7969 20.0781 20.3906 18.75C19.8438 20.5469 19.5312 22.7344 19.5312 25C19.5312 27.2656 19.8438 29.4531 20.3906 31.25ZM29.6094 18.75C28.2813 20.0781 27.3438 22.3438 27.3438 25C27.3438 27.6562 28.2031 29.9219 29.6094 31.25C30.1563 29.4531 30.4688 27.2656 30.4688 25C30.4688 22.7344 30.1563 20.5469 29.6094 18.75Z" fill="#3E4347"/>
<path d="M25 26.875C25.6904 26.875 26.25 26.0355 26.25 25C26.25 23.9645 25.6904 23.125 25 23.125C24.3096 23.125 23.75 23.9645 23.75 25C23.75 26.0355 24.3096 26.875 25 26.875Z" fill="white"/>
<path d="M24.5313 9.92188C24.0625 11.25 23.75 13.75 23.75 16.4844C23.75 19.2969 24.0625 21.7187 24.5313 23.0469C24.6875 21.0937 24.8437 18.9062 24.8437 16.4844C24.8437 14.1406 24.7656 11.875 24.5313 9.92188ZM25.4687 9.92188C25.9375 11.25 26.25 13.75 26.25 16.4844C26.25 19.2969 25.9375 21.7187 25.4687 23.0469C25.3125 21.0937 25.1563 18.9062 25.1563 16.4844C25.1563 14.1406 25.2344 11.875 25.4687 9.92188ZM24.5313 26.875C24.0625 28.2031 23.75 30.7031 23.75 33.4375C23.75 36.25 24.0625 38.6719 24.5313 40C24.6875 38.0469 24.8437 35.8594 24.8437 33.4375C24.8437 31.0937 24.7656 28.8281 24.5313 26.875ZM25.4687 26.875C25.9375 28.2031 26.25 30.7031 26.25 33.4375C26.25 36.25 25.9375 38.6719 25.4687 40C25.3125 38.0469 25.1563 35.8594 25.1563 33.4375C25.1563 31.0937 25.2344 28.8281 25.4687 26.875Z" fill="white"/>
</svg>
