<svg width="50" height="50" viewBox="0 0 50 50" fill="none" xmlns="http://www.w3.org/2000/svg">
<path d="M47.5781 31.25C48.125 29.2969 48.4375 27.1875 48.4375 25C48.4375 22.8125 48.125 20.7031 47.5781 18.75H24.7656L11.5625 5.78125C8.4375 7.96875 5.85938 10.9375 4.0625 14.375L14.8438 25L4.14063 35.625C5.85938 39.0625 8.4375 42.0312 11.6406 44.2187L24.7656 31.25H47.5781Z" fill="#699635"/>
<path d="M2.73438 17.5781C1.95312 19.9219 1.5625 22.4219 1.5625 25C1.5625 27.5781 1.95312 30.0781 2.73438 32.4219L10.2344 25L2.73438 17.5781Z" fill="#3E4347"/>
<path d="M14.2969 45.8594C17.5 47.5 21.1719 48.4375 25 48.4375C34.6094 48.4375 42.8906 42.6562 46.4844 34.2969H26.0938L14.2969 45.8594Z" fill="#428BC1"/>
<path d="M46.4844 15.7031C42.8906 7.34375 34.6094 1.5625 25 1.5625C21.1719 1.5625 17.5 2.5 14.2969 4.14063L26.0938 15.7031H46.4844Z" fill="#ED4C5C"/>
<path d="M47.2656 17.7344C47.0312 17.0313 46.7969 16.3281 46.4844 15.7031H26.0938L14.2969 4.14062C13.75 4.375 13.2812 4.6875 12.7344 5C12.3437 5.23437 11.9531 5.54687 11.5625 5.78125L24.7656 18.75H47.5781C47.5 18.4375 47.4219 18.0469 47.2656 17.7344Z" fill="white"/>
<path d="M4.14063 14.375C4.0625 14.5313 3.98438 14.6875 3.90625 14.9219C3.51563 15.7813 3.125 16.6406 2.8125 17.5781L10.3125 25L2.8125 32.4219C3.125 33.3594 3.4375 34.2188 3.90625 35.0781C3.98438 35.2344 4.0625 35.3906 4.14063 35.625L14.8438 25L4.14063 14.375Z" fill="#FFCE31"/>
<path d="M24.7656 31.25L11.5625 44.2187C11.7969 44.375 12.1094 44.6094 12.3437 44.7656C12.9687 45.1562 13.5937 45.5469 14.2969 45.8594L26.0938 34.2969H46.4844C46.7969 33.5156 47.1094 32.7344 47.4219 31.875C47.5 31.6406 47.5 31.4844 47.5781 31.25H24.7656Z" fill="white"/>
</svg>
