<svg width="696" height="376" viewBox="0 0 696 376" fill="none" xmlns="http://www.w3.org/2000/svg">
<rect width="696" height="376" rx="40" fill="#F5F5F7"/>
<rect x="30" y="30" width="425" height="316" rx="40" fill="white"/>
<path d="M69.197 86.22C67.9943 86.22 66.843 86.0513 65.743 85.714C64.643 85.362 63.7703 84.9147 63.125 84.372L64.115 82.15C64.731 82.634 65.4937 83.0373 66.403 83.36C67.3123 83.6827 68.2437 83.844 69.197 83.844C70.0037 83.844 70.6563 83.756 71.155 83.58C71.6537 83.404 72.0203 83.1693 72.255 82.876C72.4897 82.568 72.607 82.2233 72.607 81.842C72.607 81.3727 72.4383 80.9987 72.101 80.72C71.7637 80.4267 71.3237 80.1993 70.781 80.038C70.253 79.862 69.659 79.7007 68.999 79.554C68.3537 79.4073 67.701 79.2387 67.041 79.048C66.3957 78.8427 65.8017 78.586 65.259 78.278C64.731 77.9553 64.2983 77.53 63.961 77.002C63.6237 76.474 63.455 75.7993 63.455 74.978C63.455 74.142 63.675 73.3793 64.115 72.69C64.5697 71.986 65.2517 71.4287 66.161 71.018C67.085 70.5927 68.251 70.38 69.659 70.38C70.583 70.38 71.4997 70.4973 72.409 70.732C73.3183 70.9667 74.1103 71.304 74.785 71.744L73.883 73.966C73.1937 73.5553 72.4823 73.2547 71.749 73.064C71.0157 72.8587 70.3117 72.756 69.637 72.756C68.845 72.756 68.1997 72.8513 67.701 73.042C67.217 73.2327 66.8577 73.482 66.623 73.79C66.403 74.098 66.293 74.45 66.293 74.846C66.293 75.3153 66.4543 75.6967 66.777 75.99C67.1143 76.2687 67.547 76.4887 68.075 76.65C68.6177 76.8113 69.219 76.9727 69.879 77.134C70.539 77.2807 71.1917 77.4493 71.837 77.64C72.497 77.8307 73.091 78.08 73.619 78.388C74.1617 78.696 74.5943 79.114 74.917 79.642C75.2543 80.17 75.423 80.8373 75.423 81.644C75.423 82.4653 75.1957 83.228 74.741 83.932C74.301 84.6213 73.619 85.1787 72.695 85.604C71.771 86.0147 70.605 86.22 69.197 86.22ZM83.0769 86.154C81.7716 86.154 80.6276 85.8973 79.6449 85.384C78.6769 84.856 77.9216 84.1373 77.3789 83.228C76.8509 82.3187 76.5869 81.2847 76.5869 80.126C76.5869 78.9527 76.8436 77.9187 77.3569 77.024C77.8849 76.1147 78.6036 75.4033 79.5129 74.89C80.4369 74.3767 81.4856 74.12 82.6589 74.12C83.8029 74.12 84.8223 74.3693 85.7169 74.868C86.6116 75.3667 87.3156 76.0707 87.8289 76.98C88.3423 77.8893 88.5989 78.96 88.5989 80.192C88.5989 80.3093 88.5916 80.4413 88.5769 80.588C88.5769 80.7347 88.5696 80.874 88.5549 81.006H78.7649V79.18H87.1029L86.0249 79.752C86.0396 79.0773 85.9003 78.4833 85.6069 77.97C85.3136 77.4567 84.9103 77.0533 84.3969 76.76C83.8983 76.4667 83.3189 76.32 82.6589 76.32C81.9843 76.32 81.3903 76.4667 80.8769 76.76C80.3783 77.0533 79.9823 77.464 79.6889 77.992C79.4103 78.5053 79.2709 79.114 79.2709 79.818V80.258C79.2709 80.962 79.4323 81.5853 79.7549 82.128C80.0776 82.6707 80.5323 83.0887 81.1189 83.382C81.7056 83.6753 82.3803 83.822 83.1429 83.822C83.8029 83.822 84.3969 83.7193 84.9249 83.514C85.4529 83.3087 85.9223 82.986 86.3329 82.546L87.8069 84.24C87.2789 84.856 86.6116 85.3327 85.8049 85.67C85.0129 85.9927 84.1036 86.154 83.0769 86.154ZM97.4665 74.12C98.4052 74.12 99.2412 74.3033 99.9745 74.67C100.722 75.0367 101.309 75.6013 101.734 76.364C102.16 77.112 102.372 78.08 102.372 79.268V86H99.6225V79.62C99.6225 78.5787 99.3732 77.8013 98.8745 77.288C98.3905 76.7747 97.7085 76.518 96.8285 76.518C96.1832 76.518 95.6112 76.65 95.1125 76.914C94.6138 77.178 94.2252 77.574 93.9465 78.102C93.6825 78.6153 93.5505 79.268 93.5505 80.06V86H90.8005V74.252H93.4185V77.42L92.9565 76.452C93.3672 75.704 93.9612 75.132 94.7385 74.736C95.5305 74.3253 96.4398 74.12 97.4665 74.12ZM110.415 86.154C109.285 86.154 108.266 85.9047 107.357 85.406C106.462 84.8927 105.758 84.1887 105.245 83.294C104.731 82.3993 104.475 81.3433 104.475 80.126C104.475 78.9087 104.731 77.8527 105.245 76.958C105.758 76.0633 106.462 75.3667 107.357 74.868C108.266 74.3693 109.285 74.12 110.415 74.12C111.397 74.12 112.277 74.34 113.055 74.78C113.832 75.2053 114.448 75.858 114.903 76.738C115.357 77.618 115.585 78.7473 115.585 80.126C115.585 81.49 115.365 82.6193 114.925 83.514C114.485 84.394 113.876 85.054 113.099 85.494C112.321 85.934 111.427 86.154 110.415 86.154ZM110.745 83.8C111.405 83.8 111.991 83.6533 112.505 83.36C113.033 83.0667 113.451 82.6413 113.759 82.084C114.081 81.5267 114.243 80.874 114.243 80.126C114.243 79.3633 114.081 78.7107 113.759 78.168C113.451 77.6107 113.033 77.1853 112.505 76.892C111.991 76.5987 111.405 76.452 110.745 76.452C110.085 76.452 109.491 76.5987 108.963 76.892C108.449 77.1853 108.031 77.6107 107.709 78.168C107.401 78.7107 107.247 79.3633 107.247 80.126C107.247 80.874 107.401 81.5267 107.709 82.084C108.031 82.6413 108.449 83.0667 108.963 83.36C109.491 83.6533 110.085 83.8 110.745 83.8ZM114.309 86V83.228L114.419 80.104L114.199 76.98V69.676H116.927V86H114.309ZM126.01 86V70.6H128.364L135.096 81.842H133.864L140.486 70.6H142.84L142.862 86H140.156L140.134 74.846H140.706L135.074 84.24H133.798L128.078 74.846H128.738V86H126.01ZM151.598 86.154C150.395 86.154 149.324 85.8973 148.386 85.384C147.447 84.856 146.706 84.1373 146.164 83.228C145.621 82.3187 145.35 81.2847 145.35 80.126C145.35 78.9527 145.621 77.9187 146.164 77.024C146.706 76.1147 147.447 75.4033 148.386 74.89C149.324 74.3767 150.395 74.12 151.598 74.12C152.815 74.12 153.893 74.3767 154.832 74.89C155.785 75.4033 156.526 76.1073 157.054 77.002C157.596 77.8967 157.868 78.938 157.868 80.126C157.868 81.2847 157.596 82.3187 157.054 83.228C156.526 84.1373 155.785 84.856 154.832 85.384C153.893 85.8973 152.815 86.154 151.598 86.154ZM151.598 83.8C152.272 83.8 152.874 83.6533 153.402 83.36C153.93 83.0667 154.34 82.6413 154.634 82.084C154.942 81.5267 155.096 80.874 155.096 80.126C155.096 79.3633 154.942 78.7107 154.634 78.168C154.34 77.6107 153.93 77.1853 153.402 76.892C152.874 76.5987 152.28 76.452 151.62 76.452C150.945 76.452 150.344 76.5987 149.816 76.892C149.302 77.1853 148.892 77.6107 148.584 78.168C148.276 78.7107 148.122 79.3633 148.122 80.126C148.122 80.874 148.276 81.5267 148.584 82.084C148.892 82.6413 149.302 83.0667 149.816 83.36C150.344 83.6533 150.938 83.8 151.598 83.8ZM166.724 74.12C167.662 74.12 168.498 74.3033 169.232 74.67C169.98 75.0367 170.566 75.6013 170.992 76.364C171.417 77.112 171.63 78.08 171.63 79.268V86H168.88V79.62C168.88 78.5787 168.63 77.8013 168.132 77.288C167.648 76.7747 166.966 76.518 166.086 76.518C165.44 76.518 164.868 76.65 164.37 76.914C163.871 77.178 163.482 77.574 163.204 78.102C162.94 78.6153 162.808 79.268 162.808 80.06V86H160.058V74.252H162.676V77.42L162.214 76.452C162.624 75.704 163.218 75.132 163.996 74.736C164.788 74.3253 165.697 74.12 166.724 74.12ZM180.222 86.154C178.916 86.154 177.772 85.8973 176.79 85.384C175.822 84.856 175.066 84.1373 174.524 83.228C173.996 82.3187 173.732 81.2847 173.732 80.126C173.732 78.9527 173.988 77.9187 174.502 77.024C175.03 76.1147 175.748 75.4033 176.658 74.89C177.582 74.3767 178.63 74.12 179.804 74.12C180.948 74.12 181.967 74.3693 182.862 74.868C183.756 75.3667 184.46 76.0707 184.974 76.98C185.487 77.8893 185.744 78.96 185.744 80.192C185.744 80.3093 185.736 80.4413 185.722 80.588C185.722 80.7347 185.714 80.874 185.7 81.006H175.91V79.18H184.248L183.17 79.752C183.184 79.0773 183.045 78.4833 182.752 77.97C182.458 77.4567 182.055 77.0533 181.542 76.76C181.043 76.4667 180.464 76.32 179.804 76.32C179.129 76.32 178.535 76.4667 178.022 76.76C177.523 77.0533 177.127 77.464 176.834 77.992C176.555 78.5053 176.416 79.114 176.416 79.818V80.258C176.416 80.962 176.577 81.5853 176.9 82.128C177.222 82.6707 177.677 83.0887 178.264 83.382C178.85 83.6753 179.525 83.822 180.288 83.822C180.948 83.822 181.542 83.7193 182.07 83.514C182.598 83.3087 183.067 82.986 183.478 82.546L184.952 84.24C184.424 84.856 183.756 85.3327 182.95 85.67C182.158 85.9927 181.248 86.154 180.222 86.154ZM188.698 90.422C188.126 90.422 187.554 90.3267 186.982 90.136C186.41 89.9453 185.934 89.6813 185.552 89.344L186.652 87.32C186.931 87.5693 187.246 87.7673 187.598 87.914C187.95 88.0607 188.31 88.134 188.676 88.134C189.175 88.134 189.578 88.0093 189.886 87.76C190.194 87.5107 190.48 87.0927 190.744 86.506L191.426 84.966L191.646 84.636L196.09 74.252H198.73L193.23 86.946C192.864 87.826 192.453 88.5227 191.998 89.036C191.558 89.5493 191.06 89.9087 190.502 90.114C189.96 90.3193 189.358 90.422 188.698 90.422ZM191.118 86.418L185.816 74.252H188.676L192.988 84.394L191.118 86.418Z" fill="#1D1D1F"/>
<path d="M306.203 80.375H304.604C304.371 80.375 304.182 80.5639 304.182 80.7969V82.5845H299.875V78.125H302.828C303.061 78.125 303.25 77.9361 303.25 77.7031V76.2969C303.25 76.0639 303.061 75.875 302.828 75.875H299.875V73.6406C299.875 72.5063 300.739 71.6337 302.047 71.6337C302.879 71.6337 303.66 72.0382 304.074 72.2963C304.255 72.4093 304.492 72.3684 304.626 72.2019L305.627 70.9534C305.776 70.768 305.743 70.4962 305.553 70.3529C304.977 69.9181 303.692 69.125 301.982 69.125C299.102 69.125 297.062 70.9792 297.062 73.5533V75.875H296.078C295.845 75.875 295.656 76.0639 295.656 76.2969V77.7031C295.656 77.9361 295.845 78.125 296.078 78.125H297.062V82.625H295.797C295.564 82.625 295.375 82.8139 295.375 83.0469V84.4531C295.375 84.6861 295.564 84.875 295.797 84.875H306.203C306.436 84.875 306.625 84.6861 306.625 84.4531V80.7969C306.625 80.5639 306.436 80.375 306.203 80.375Z" fill="#1D1D1F"/>
<path d="M313.823 86V71.7L315.077 72.998H310.567V70.6H316.683V86H313.823ZM325.4 76.738V74.538H335.542V76.738H325.4ZM325.4 82.062V79.862H335.542V82.062H325.4ZM348.307 88.64V67.96H350.111V88.64H348.307ZM348.989 86.22C347.786 86.22 346.635 86.0513 345.535 85.714C344.435 85.362 343.562 84.9147 342.917 84.372L343.907 82.15C344.523 82.634 345.286 83.0373 346.195 83.36C347.104 83.6827 348.036 83.844 348.989 83.844C349.796 83.844 350.448 83.756 350.947 83.58C351.446 83.404 351.812 83.1693 352.047 82.876C352.282 82.568 352.399 82.2233 352.399 81.842C352.399 81.3727 352.23 80.9987 351.893 80.72C351.556 80.4267 351.116 80.1993 350.573 80.038C350.045 79.862 349.451 79.7007 348.791 79.554C348.146 79.4073 347.493 79.2387 346.833 79.048C346.188 78.8427 345.594 78.586 345.051 78.278C344.523 77.9553 344.09 77.53 343.753 77.002C343.416 76.474 343.247 75.7993 343.247 74.978C343.247 74.142 343.467 73.3793 343.907 72.69C344.362 71.986 345.044 71.4287 345.953 71.018C346.877 70.5927 348.043 70.38 349.451 70.38C350.375 70.38 351.292 70.4973 352.201 70.732C353.11 70.9667 353.902 71.304 354.577 71.744L353.675 73.966C352.986 73.5553 352.274 73.2547 351.541 73.064C350.808 72.8587 350.104 72.756 349.429 72.756C348.637 72.756 347.992 72.8513 347.493 73.042C347.009 73.2327 346.65 73.482 346.415 73.79C346.195 74.098 346.085 74.45 346.085 74.846C346.085 75.3153 346.246 75.6967 346.569 75.99C346.906 76.2687 347.339 76.4887 347.867 76.65C348.41 76.8113 349.011 76.9727 349.671 77.134C350.331 77.2807 350.984 77.4493 351.629 77.64C352.289 77.8307 352.883 78.08 353.411 78.388C353.954 78.696 354.386 79.114 354.709 79.642C355.046 80.17 355.215 80.8373 355.215 81.644C355.215 82.4653 354.988 83.228 354.533 83.932C354.093 84.6213 353.411 85.1787 352.487 85.604C351.563 86.0147 350.397 86.22 348.989 86.22ZM358.76 86V71.7L360.014 72.998H355.504V70.6H361.62V86H358.76ZM365.951 86.154C365.452 86.154 365.027 85.9853 364.675 85.648C364.323 85.296 364.147 84.856 364.147 84.328C364.147 83.7707 364.323 83.3307 364.675 83.008C365.027 82.6707 365.452 82.502 365.951 82.502C366.45 82.502 366.875 82.6707 367.227 83.008C367.579 83.3307 367.755 83.7707 367.755 84.328C367.755 84.856 367.579 85.296 367.227 85.648C366.875 85.9853 366.45 86.154 365.951 86.154ZM374.221 86.22C373.136 86.22 372.072 86.066 371.031 85.758C370.004 85.4353 369.139 84.9953 368.435 84.438L369.667 82.216C370.224 82.6707 370.899 83.0373 371.691 83.316C372.483 83.5947 373.312 83.734 374.177 83.734C375.204 83.734 376.003 83.5287 376.575 83.118C377.147 82.6927 377.433 82.1207 377.433 81.402C377.433 80.698 377.169 80.1407 376.641 79.73C376.113 79.3193 375.262 79.114 374.089 79.114H372.681V77.156L377.081 71.92L377.455 72.998H369.183V70.6H379.677V72.514L375.277 77.75L373.781 76.87H374.639C376.531 76.87 377.946 77.2953 378.885 78.146C379.838 78.982 380.315 80.06 380.315 81.38C380.315 82.2453 380.095 83.0447 379.655 83.778C379.215 84.5113 378.54 85.1053 377.631 85.56C376.736 86 375.6 86.22 374.221 86.22ZM381.526 82.502V80.522L389.116 70.6H392.174L384.694 80.522L383.264 80.082H395.474V82.502H381.526ZM389.974 86V82.502L390.062 80.082V76.98H392.746V86H389.974ZM396.017 82.502V80.522L403.607 70.6H406.665L399.185 80.522L397.755 80.082H409.965V82.502H396.017ZM404.465 86V82.502L404.553 80.082V76.98H407.237V86H404.465ZM415.833 86.22C414.748 86.22 413.684 86.066 412.643 85.758C411.616 85.4353 410.751 84.9953 410.047 84.438L411.257 82.216C411.814 82.6707 412.489 83.0373 413.281 83.316C414.088 83.5947 414.924 83.734 415.789 83.734C416.801 83.734 417.593 83.5213 418.165 83.096C418.752 82.6707 419.045 82.0987 419.045 81.38C419.045 80.896 418.92 80.4707 418.671 80.104C418.436 79.7373 418.011 79.4587 417.395 79.268C416.794 79.0773 415.965 78.982 414.909 78.982H411.191L411.983 70.6H421.025V72.998H413.039L414.535 71.634L413.941 77.904L412.445 76.562H415.547C417.072 76.562 418.297 76.7673 419.221 77.178C420.16 77.574 420.842 78.1313 421.267 78.85C421.707 79.554 421.927 80.3607 421.927 81.27C421.927 82.1647 421.707 82.986 421.267 83.734C420.827 84.482 420.152 85.0833 419.243 85.538C418.348 85.9927 417.212 86.22 415.833 86.22Z" fill="#1D1D1F"/>
<rect x="62" y="108" width="361" height="70" rx="16" fill="#F5F5F7"/>
<g clip-path="url(#clip0_680_495)">
<path d="M89.9985 168.742V165.3C89.9985 163.98 89.206 163.12 87.8476 163.12C87.1685 163.12 86.4327 163.35 85.9233 164.095C85.5273 163.464 84.9614 163.12 84.1124 163.12C83.5462 163.12 82.9806 163.292 82.5276 163.923V163.235H81.3391V168.742H82.5276V165.701C82.5276 164.726 83.0371 164.267 83.8296 164.267C84.6216 164.267 85.0181 164.784 85.0181 165.701V168.742H86.2066V165.701C86.2066 164.726 86.7723 164.267 87.5081 164.267C88.3006 164.267 88.6966 164.784 88.6966 165.701V168.742H89.9985ZM107.6 163.235H105.676V161.571H104.487V163.235H103.412V164.325H104.487V166.849C104.487 168.111 104.996 168.856 106.355 168.856C106.864 168.856 107.43 168.684 107.826 168.455L107.487 167.422C107.147 167.652 106.751 167.709 106.468 167.709C105.902 167.709 105.676 167.365 105.676 166.791V164.325H107.6V163.235ZM117.674 163.12C116.995 163.12 116.542 163.464 116.259 163.923V163.235H115.071V168.742H116.259V165.644C116.259 164.726 116.655 164.21 117.391 164.21C117.617 164.21 117.9 164.268 118.127 164.325L118.466 163.178C118.24 163.12 117.9 163.12 117.674 163.12V163.12ZM102.45 163.694C101.883 163.292 101.091 163.12 100.242 163.12C98.8841 163.12 97.9786 163.808 97.9786 164.898C97.9786 165.816 98.6577 166.332 99.8462 166.505L100.412 166.562C101.035 166.677 101.374 166.849 101.374 167.136C101.374 167.537 100.922 167.824 100.129 167.824C99.3368 167.824 98.7142 167.537 98.3179 167.25L97.752 168.168C98.3746 168.627 99.2236 168.856 100.072 168.856C101.657 168.856 102.563 168.111 102.563 167.078C102.563 166.103 101.827 165.587 100.695 165.415L100.129 165.357C99.6196 165.3 99.2236 165.185 99.2236 164.841C99.2236 164.44 99.6196 164.21 100.242 164.21C100.922 164.21 101.601 164.497 101.94 164.669L102.45 163.694ZM134.03 163.12C133.351 163.12 132.898 163.464 132.615 163.923V163.235H131.427V168.742H132.615V165.644C132.615 164.726 133.012 164.21 133.747 164.21C133.974 164.21 134.257 164.268 134.483 164.325L134.823 163.178C134.596 163.12 134.257 163.12 134.03 163.12ZM118.863 165.988C118.863 167.652 119.994 168.856 121.749 168.856C122.541 168.856 123.107 168.684 123.673 168.226L123.107 167.25C122.654 167.595 122.202 167.766 121.692 167.766C120.73 167.766 120.051 167.078 120.051 165.988C120.051 164.956 120.73 164.267 121.692 164.21C122.202 164.21 122.654 164.382 123.107 164.726L123.673 163.751C123.107 163.292 122.541 163.12 121.749 163.12C119.994 163.12 118.863 164.325 118.863 165.988ZM129.842 165.988V163.235H128.654V163.923C128.258 163.407 127.692 163.12 126.956 163.12C125.428 163.12 124.239 164.325 124.239 165.988C124.239 167.652 125.428 168.856 126.956 168.856C127.748 168.856 128.314 168.57 128.654 168.053V168.742H129.842V165.988ZM125.484 165.988C125.484 165.013 126.107 164.21 127.125 164.21C128.088 164.21 128.767 164.956 128.767 165.988C128.767 166.963 128.088 167.766 127.125 167.766C126.107 167.709 125.484 166.963 125.484 165.988ZM111.279 163.12C109.694 163.12 108.562 164.267 108.562 165.988C108.562 167.709 109.694 168.856 111.335 168.856C112.127 168.856 112.92 168.627 113.543 168.111L112.976 167.25C112.524 167.595 111.958 167.824 111.392 167.824C110.656 167.824 109.92 167.48 109.75 166.504H113.769V166.046C113.826 164.267 112.807 163.12 111.279 163.12ZM111.279 164.153C112.014 164.153 112.524 164.612 112.637 165.472H109.807C109.92 164.726 110.43 164.153 111.279 164.153ZM140.765 165.988V161.055H139.577V163.923C139.181 163.407 138.615 163.12 137.879 163.12C136.351 163.12 135.162 164.325 135.162 165.988C135.162 167.652 136.351 168.856 137.879 168.856C138.671 168.856 139.237 168.57 139.577 168.053V168.742H140.765V165.988ZM136.407 165.988C136.407 165.013 137.03 164.21 138.049 164.21C139.011 164.21 139.69 164.956 139.69 165.988C139.69 166.963 139.011 167.766 138.049 167.766C137.03 167.709 136.407 166.963 136.407 165.988ZM96.6767 165.988V163.235H95.4882V163.923C95.0919 163.407 94.526 163.12 93.7902 163.12C92.2621 163.12 91.0736 164.325 91.0736 165.988C91.0736 167.652 92.2621 168.856 93.7902 168.856C94.5827 168.856 95.1486 168.57 95.4882 168.053V168.742H96.6767V165.988ZM92.2621 165.988C92.2621 165.013 92.8848 164.21 93.9034 164.21C94.8655 164.21 95.5449 164.956 95.5449 165.988C95.5449 166.963 94.8655 167.766 93.9034 167.766C92.8848 167.709 92.2621 166.963 92.2621 165.988Z" fill="#1D1D1F"/>
<path d="M102.053 121.417H119.881V153.884H102.053V121.417Z" fill="#FF5F00"/>
<path d="M103.185 137.651C103.185 131.054 106.241 125.203 110.939 121.417C107.487 118.663 103.129 117 98.3749 117C87.1118 117 78 126.235 78 137.651C78 149.066 87.1118 158.301 98.3746 158.301C103.129 158.301 107.486 156.638 110.939 153.884C106.241 150.156 103.185 144.247 103.185 137.651Z" fill="#EB001B"/>
<path d="M143.935 137.651C143.935 149.066 134.823 158.301 123.56 158.301C118.806 158.301 114.448 156.638 110.996 153.884C115.75 150.099 118.749 144.247 118.749 137.651C118.749 131.054 115.693 125.203 110.996 121.417C114.448 118.663 118.806 117 123.56 117C134.823 117 143.935 126.293 143.935 137.651Z" fill="#F79E1B"/>
</g>
<path d="M388 140L394 146L400 140" stroke="#8A9099" stroke-width="2" stroke-linecap="round" stroke-linejoin="round"/>
<path d="M306.203 146.375H304.604C304.371 146.375 304.182 146.564 304.182 146.797V148.584H299.875V144.125H302.828C303.061 144.125 303.25 143.936 303.25 143.703V142.297C303.25 142.064 303.061 141.875 302.828 141.875H299.875V139.641C299.875 138.506 300.739 137.634 302.047 137.634C302.879 137.634 303.66 138.038 304.074 138.296C304.255 138.409 304.492 138.368 304.626 138.202L305.627 136.953C305.776 136.768 305.743 136.496 305.553 136.353C304.977 135.918 303.692 135.125 301.982 135.125C299.102 135.125 297.062 136.979 297.062 139.553V141.875H296.078C295.845 141.875 295.656 142.064 295.656 142.297V143.703C295.656 143.936 295.845 144.125 296.078 144.125H297.062V148.625H295.797C295.564 148.625 295.375 148.814 295.375 149.047V150.453C295.375 150.686 295.564 150.875 295.797 150.875H306.203C306.436 150.875 306.625 150.686 306.625 150.453V146.797C306.625 146.564 306.436 146.375 306.203 146.375Z" fill="#1D1D1F"/>
<path d="M313.809 152V137.7L315.063 138.998H310.553V136.6H316.669V152H313.809ZM325.708 152.22C324.491 152.22 323.391 151.912 322.408 151.296C321.44 150.68 320.678 149.785 320.12 148.612C319.563 147.424 319.284 145.987 319.284 144.3C319.284 142.613 319.563 141.183 320.12 140.01C320.678 138.822 321.44 137.92 322.408 137.304C323.391 136.688 324.491 136.38 325.708 136.38C326.94 136.38 328.04 136.688 329.008 137.304C329.976 137.92 330.739 138.822 331.296 140.01C331.868 141.183 332.154 142.613 332.154 144.3C332.154 145.987 331.868 147.424 331.296 148.612C330.739 149.785 329.976 150.68 329.008 151.296C328.04 151.912 326.94 152.22 325.708 152.22ZM325.708 149.734C326.427 149.734 327.05 149.543 327.578 149.162C328.106 148.766 328.517 148.165 328.81 147.358C329.118 146.551 329.272 145.532 329.272 144.3C329.272 143.053 329.118 142.034 328.81 141.242C328.517 140.435 328.106 139.841 327.578 139.46C327.05 139.064 326.427 138.866 325.708 138.866C325.019 138.866 324.403 139.064 323.86 139.46C323.332 139.841 322.914 140.435 322.606 141.242C322.313 142.034 322.166 143.053 322.166 144.3C322.166 145.532 322.313 146.551 322.606 147.358C322.914 148.165 323.332 148.766 323.86 149.162C324.403 149.543 325.019 149.734 325.708 149.734ZM333.499 155.322L334.775 150.46L335.149 152.088C334.636 152.088 334.203 151.934 333.851 151.626C333.514 151.303 333.345 150.871 333.345 150.328C333.345 149.771 333.514 149.331 333.851 149.008C334.203 148.671 334.629 148.502 335.127 148.502C335.641 148.502 336.066 148.671 336.403 149.008C336.741 149.345 336.909 149.785 336.909 150.328C336.909 150.475 336.895 150.636 336.865 150.812C336.836 150.973 336.785 151.164 336.711 151.384C336.653 151.604 336.55 151.883 336.403 152.22L335.281 155.322H333.499ZM344.486 152.22C343.269 152.22 342.169 151.912 341.186 151.296C340.218 150.68 339.456 149.785 338.898 148.612C338.341 147.424 338.062 145.987 338.062 144.3C338.062 142.613 338.341 141.183 338.898 140.01C339.456 138.822 340.218 137.92 341.186 137.304C342.169 136.688 343.269 136.38 344.486 136.38C345.718 136.38 346.818 136.688 347.786 137.304C348.754 137.92 349.517 138.822 350.074 140.01C350.646 141.183 350.932 142.613 350.932 144.3C350.932 145.987 350.646 147.424 350.074 148.612C349.517 149.785 348.754 150.68 347.786 151.296C346.818 151.912 345.718 152.22 344.486 152.22ZM344.486 149.734C345.205 149.734 345.828 149.543 346.356 149.162C346.884 148.766 347.295 148.165 347.588 147.358C347.896 146.551 348.05 145.532 348.05 144.3C348.05 143.053 347.896 142.034 347.588 141.242C347.295 140.435 346.884 139.841 346.356 139.46C345.828 139.064 345.205 138.866 344.486 138.866C343.797 138.866 343.181 139.064 342.638 139.46C342.11 139.841 341.692 140.435 341.384 141.242C341.091 142.034 340.944 143.053 340.944 144.3C340.944 145.532 341.091 146.551 341.384 147.358C341.692 148.165 342.11 148.766 342.638 149.162C343.181 149.543 343.797 149.734 344.486 149.734ZM358.849 152.22C357.632 152.22 356.532 151.912 355.549 151.296C354.581 150.68 353.819 149.785 353.261 148.612C352.704 147.424 352.425 145.987 352.425 144.3C352.425 142.613 352.704 141.183 353.261 140.01C353.819 138.822 354.581 137.92 355.549 137.304C356.532 136.688 357.632 136.38 358.849 136.38C360.081 136.38 361.181 136.688 362.149 137.304C363.117 137.92 363.88 138.822 364.437 140.01C365.009 141.183 365.295 142.613 365.295 144.3C365.295 145.987 365.009 147.424 364.437 148.612C363.88 149.785 363.117 150.68 362.149 151.296C361.181 151.912 360.081 152.22 358.849 152.22ZM358.849 149.734C359.568 149.734 360.191 149.543 360.719 149.162C361.247 148.766 361.658 148.165 361.951 147.358C362.259 146.551 362.413 145.532 362.413 144.3C362.413 143.053 362.259 142.034 361.951 141.242C361.658 140.435 361.247 139.841 360.719 139.46C360.191 139.064 359.568 138.866 358.849 138.866C358.16 138.866 357.544 139.064 357.001 139.46C356.473 139.841 356.055 140.435 355.747 141.242C355.454 142.034 355.307 143.053 355.307 144.3C355.307 145.532 355.454 146.551 355.747 147.358C356.055 148.165 356.473 148.766 357.001 149.162C357.544 149.543 358.16 149.734 358.849 149.734ZM373.212 152.22C371.995 152.22 370.895 151.912 369.912 151.296C368.944 150.68 368.181 149.785 367.624 148.612C367.067 147.424 366.788 145.987 366.788 144.3C366.788 142.613 367.067 141.183 367.624 140.01C368.181 138.822 368.944 137.92 369.912 137.304C370.895 136.688 371.995 136.38 373.212 136.38C374.444 136.38 375.544 136.688 376.512 137.304C377.48 137.92 378.243 138.822 378.8 140.01C379.372 141.183 379.658 142.613 379.658 144.3C379.658 145.987 379.372 147.424 378.8 148.612C378.243 149.785 377.48 150.68 376.512 151.296C375.544 151.912 374.444 152.22 373.212 152.22ZM373.212 149.734C373.931 149.734 374.554 149.543 375.082 149.162C375.61 148.766 376.021 148.165 376.314 147.358C376.622 146.551 376.776 145.532 376.776 144.3C376.776 143.053 376.622 142.034 376.314 141.242C376.021 140.435 375.61 139.841 375.082 139.46C374.554 139.064 373.931 138.866 373.212 138.866C372.523 138.866 371.907 139.064 371.364 139.46C370.836 139.841 370.418 140.435 370.11 141.242C369.817 142.034 369.67 143.053 369.67 144.3C369.67 145.532 369.817 146.551 370.11 147.358C370.418 148.165 370.836 148.766 371.364 149.162C371.907 149.543 372.523 149.734 373.212 149.734Z" fill="#1D1D1F"/>
<path d="M64.2026 226V210.6H67.0626V226H64.2026ZM70.788 226V210.6H78.004C79.852 210.6 81.26 210.967 82.228 211.7C83.196 212.419 83.68 213.387 83.68 214.604C83.68 215.425 83.4893 216.129 83.108 216.716C82.7267 217.288 82.2133 217.735 81.568 218.058C80.9373 218.366 80.248 218.52 79.5 218.52L79.896 217.728C80.7613 217.728 81.5387 217.889 82.228 218.212C82.9173 218.52 83.46 218.975 83.856 219.576C84.2667 220.177 84.472 220.925 84.472 221.82C84.472 223.14 83.966 224.167 82.954 224.9C81.942 225.633 80.4387 226 78.444 226H70.788ZM73.648 223.756H78.268C79.3387 223.756 80.16 223.58 80.732 223.228C81.304 222.876 81.59 222.311 81.59 221.534C81.59 220.771 81.304 220.214 80.732 219.862C80.16 219.495 79.3387 219.312 78.268 219.312H73.428V217.09H77.696C78.6933 217.09 79.456 216.914 79.984 216.562C80.5267 216.21 80.798 215.682 80.798 214.978C80.798 214.259 80.5267 213.724 79.984 213.372C79.456 213.02 78.6933 212.844 77.696 212.844H73.648V223.756ZM84.9063 226L91.8363 210.6H94.6523L101.604 226H98.6123L92.6503 212.118H93.7943L87.8543 226H84.9063ZM88.0963 222.436L88.8663 220.192H97.1823L97.9523 222.436H88.0963ZM103.123 226V210.6H105.477L115.135 222.458H113.969V210.6H116.807V226H114.453L104.795 214.142H105.961V226H103.123Z" fill="#8A9099"/>
<rect x="63" y="245" width="359" height="68" rx="15" fill="white" stroke="#E8E9EB" stroke-width="2"/>
<path d="M87.3 288.22C86.0973 288.22 84.99 288.029 83.978 287.648C82.9806 287.252 82.108 286.702 81.36 285.998C80.612 285.279 80.0326 284.436 79.622 283.468C79.2113 282.5 79.006 281.444 79.006 280.3C79.006 279.156 79.2113 278.1 79.622 277.132C80.0326 276.164 80.612 275.328 81.36 274.624C82.1226 273.905 83.01 273.355 84.022 272.974C85.034 272.578 86.1413 272.38 87.344 272.38C88.6493 272.38 89.8226 272.593 90.864 273.018C91.92 273.443 92.8073 274.067 93.526 274.888L91.722 276.648C91.1206 276.047 90.468 275.607 89.764 275.328C89.0746 275.035 88.312 274.888 87.476 274.888C86.6693 274.888 85.9213 275.02 85.232 275.284C84.5426 275.548 83.9486 275.922 83.45 276.406C82.9513 276.89 82.5626 277.462 82.284 278.122C82.02 278.782 81.888 279.508 81.888 280.3C81.888 281.077 82.02 281.796 82.284 282.456C82.5626 283.116 82.9513 283.695 83.45 284.194C83.9486 284.678 84.5353 285.052 85.21 285.316C85.8846 285.58 86.6326 285.712 87.454 285.712C88.2166 285.712 88.95 285.595 89.654 285.36C90.3726 285.111 91.0546 284.7 91.7 284.128L93.328 286.262C92.5213 286.907 91.5826 287.399 90.512 287.736C89.456 288.059 88.3853 288.22 87.3 288.22ZM90.622 285.888V280.124H93.328V286.262L90.622 285.888ZM96.6601 288V272.6H99.0141L105.746 283.842H104.514L111.136 272.6H113.49L113.512 288H110.806L110.784 276.846H111.356L105.724 286.24H104.448L98.7281 276.846H99.3881V288H96.6601ZM119.784 284.37L119.63 280.982L127.704 272.6H130.916L124.206 279.728L122.622 281.466L119.784 284.37ZM117.232 288V272.6H120.092V288H117.232ZM127.968 288L122.072 280.982L123.964 278.892L131.312 288H127.968ZM132.819 288V272.6H140.035C141.883 272.6 143.291 272.967 144.259 273.7C145.227 274.419 145.711 275.387 145.711 276.604C145.711 277.425 145.521 278.129 145.139 278.716C144.758 279.288 144.245 279.735 143.599 280.058C142.969 280.366 142.279 280.52 141.531 280.52L141.927 279.728C142.793 279.728 143.57 279.889 144.259 280.212C144.949 280.52 145.491 280.975 145.887 281.576C146.298 282.177 146.503 282.925 146.503 283.82C146.503 285.14 145.997 286.167 144.985 286.9C143.973 287.633 142.47 288 140.475 288H132.819ZM135.679 285.756H140.299C141.37 285.756 142.191 285.58 142.763 285.228C143.335 284.876 143.621 284.311 143.621 283.534C143.621 282.771 143.335 282.214 142.763 281.862C142.191 281.495 141.37 281.312 140.299 281.312H135.459V279.09H139.727C140.725 279.09 141.487 278.914 142.015 278.562C142.558 278.21 142.829 277.682 142.829 276.978C142.829 276.259 142.558 275.724 142.015 275.372C141.487 275.02 140.725 274.844 139.727 274.844H135.679V285.756ZM150.479 288V273.7L151.733 274.998H147.223V272.6H153.339V288H150.479ZM160.794 288.22C159.709 288.22 158.646 288.066 157.604 287.758C156.578 287.435 155.712 286.995 155.008 286.438L156.24 284.216C156.798 284.671 157.472 285.037 158.264 285.316C159.056 285.595 159.885 285.734 160.75 285.734C161.777 285.734 162.576 285.529 163.148 285.118C163.72 284.693 164.006 284.121 164.006 283.402C164.006 282.698 163.742 282.141 163.214 281.73C162.686 281.319 161.836 281.114 160.662 281.114H159.254V279.156L163.654 273.92L164.028 274.998H155.756V272.6H166.25V274.514L161.85 279.75L160.354 278.87H161.212C163.104 278.87 164.52 279.295 165.458 280.146C166.412 280.982 166.888 282.06 166.888 283.38C166.888 284.245 166.668 285.045 166.228 285.778C165.788 286.511 165.114 287.105 164.204 287.56C163.31 288 162.173 288.22 160.794 288.22ZM168.014 288V286.086L174.13 280.278C174.643 279.794 175.024 279.369 175.274 279.002C175.523 278.635 175.684 278.298 175.758 277.99C175.846 277.667 175.89 277.367 175.89 277.088C175.89 276.384 175.648 275.841 175.164 275.46C174.68 275.064 173.968 274.866 173.03 274.866C172.282 274.866 171.6 274.998 170.984 275.262C170.382 275.526 169.862 275.929 169.422 276.472L167.42 274.932C168.021 274.125 168.828 273.502 169.84 273.062C170.866 272.607 172.01 272.38 173.272 272.38C174.386 272.38 175.354 272.563 176.176 272.93C177.012 273.282 177.65 273.788 178.09 274.448C178.544 275.108 178.772 275.893 178.772 276.802C178.772 277.301 178.706 277.799 178.574 278.298C178.442 278.782 178.192 279.295 177.826 279.838C177.459 280.381 176.924 280.989 176.22 281.664L170.962 286.658L170.368 285.58H179.366V288H168.014ZM180.034 284.502V282.522L187.624 272.6H190.682L183.202 282.522L181.772 282.082H193.982V284.502H180.034ZM188.482 288V284.502L188.57 282.082V278.98H191.254V288H188.482ZM199.392 288.22C198.307 288.22 197.244 288.066 196.202 287.758C195.176 287.435 194.31 286.995 193.606 286.438L194.838 284.216C195.396 284.671 196.07 285.037 196.862 285.316C197.654 285.595 198.483 285.734 199.348 285.734C200.375 285.734 201.174 285.529 201.746 285.118C202.318 284.693 202.604 284.121 202.604 283.402C202.604 282.698 202.34 282.141 201.812 281.73C201.284 281.319 200.434 281.114 199.26 281.114H197.852V279.156L202.252 273.92L202.626 274.998H194.354V272.6H204.848V274.514L200.448 279.75L198.952 278.87H199.81C201.702 278.87 203.118 279.295 204.056 280.146C205.01 280.982 205.486 282.06 205.486 283.38C205.486 284.245 205.266 285.045 204.826 285.778C204.386 286.511 203.712 287.105 202.802 287.56C201.908 288 200.771 288.22 199.392 288.22ZM206.697 284.502V282.522L214.287 272.6H217.345L209.865 282.522L208.435 282.082H220.645V284.502H206.697ZM215.145 288V284.502L215.233 282.082V278.98H217.917V288H215.145ZM228.075 288.22C226.681 288.22 225.486 287.927 224.489 287.34C223.491 286.739 222.729 285.873 222.201 284.744C221.673 283.615 221.409 282.221 221.409 280.564C221.409 278.804 221.724 277.315 222.355 276.098C223 274.881 223.887 273.957 225.017 273.326C226.161 272.695 227.473 272.38 228.955 272.38C229.732 272.38 230.473 272.461 231.177 272.622C231.895 272.783 232.504 273.033 233.003 273.37L231.947 275.526C231.521 275.247 231.059 275.057 230.561 274.954C230.077 274.837 229.563 274.778 229.021 274.778C227.569 274.778 226.417 275.225 225.567 276.12C224.716 277.015 224.291 278.335 224.291 280.08C224.291 280.359 224.298 280.689 224.313 281.07C224.327 281.437 224.379 281.811 224.467 282.192L223.587 281.224C223.851 280.623 224.21 280.124 224.665 279.728C225.134 279.317 225.684 279.009 226.315 278.804C226.96 278.599 227.657 278.496 228.405 278.496C229.417 278.496 230.319 278.694 231.111 279.09C231.903 279.471 232.533 280.021 233.003 280.74C233.472 281.444 233.707 282.273 233.707 283.226C233.707 284.238 233.457 285.118 232.959 285.866C232.46 286.614 231.785 287.193 230.935 287.604C230.084 288.015 229.131 288.22 228.075 288.22ZM227.921 285.976C228.507 285.976 229.028 285.873 229.483 285.668C229.937 285.448 230.289 285.14 230.539 284.744C230.803 284.348 230.935 283.886 230.935 283.358C230.935 282.551 230.656 281.913 230.099 281.444C229.541 280.975 228.793 280.74 227.855 280.74C227.239 280.74 226.696 280.857 226.227 281.092C225.772 281.312 225.405 281.62 225.127 282.016C224.863 282.412 224.731 282.867 224.731 283.38C224.731 283.849 224.855 284.282 225.105 284.678C225.354 285.074 225.713 285.389 226.183 285.624C226.667 285.859 227.246 285.976 227.921 285.976ZM242.484 288.22C240.372 288.22 238.714 287.626 237.512 286.438C236.324 285.25 235.73 283.534 235.73 281.29V272.6H238.59V281.18C238.59 282.764 238.927 283.915 239.602 284.634C240.291 285.353 241.259 285.712 242.506 285.712C243.752 285.712 244.713 285.353 245.388 284.634C246.062 283.915 246.4 282.764 246.4 281.18V272.6H249.216V281.29C249.216 283.534 248.614 285.25 247.412 286.438C246.224 287.626 244.581 288.22 242.484 288.22ZM255.333 284.37L255.179 280.982L263.253 272.6H266.465L259.755 279.728L258.171 281.466L255.333 284.37ZM252.781 288V272.6H255.641V288H252.781ZM263.517 288L257.621 280.982L259.513 278.892L266.861 288H263.517ZM270.162 288V273.7L271.416 274.998H266.906V272.6H273.022V288H270.162ZM280.741 288.22C279.656 288.22 278.592 288.066 277.551 287.758C276.524 287.435 275.659 286.995 274.955 286.438L276.165 284.216C276.722 284.671 277.397 285.037 278.189 285.316C278.996 285.595 279.832 285.734 280.697 285.734C281.709 285.734 282.501 285.521 283.073 285.096C283.66 284.671 283.953 284.099 283.953 283.38C283.953 282.896 283.828 282.471 283.579 282.104C283.344 281.737 282.919 281.459 282.303 281.268C281.702 281.077 280.873 280.982 279.817 280.982H276.099L276.891 272.6H285.933V274.998H277.947L279.443 273.634L278.849 279.904L277.353 278.562H280.455C281.98 278.562 283.205 278.767 284.129 279.178C285.068 279.574 285.75 280.131 286.175 280.85C286.615 281.554 286.835 282.361 286.835 283.27C286.835 284.165 286.615 284.986 286.175 285.734C285.735 286.482 285.06 287.083 284.151 287.538C283.256 287.993 282.12 288.22 280.741 288.22ZM287.739 288V286.086L293.855 280.278C294.369 279.794 294.75 279.369 294.999 279.002C295.249 278.635 295.41 278.298 295.483 277.99C295.571 277.667 295.615 277.367 295.615 277.088C295.615 276.384 295.373 275.841 294.889 275.46C294.405 275.064 293.694 274.866 292.755 274.866C292.007 274.866 291.325 274.998 290.709 275.262C290.108 275.526 289.587 275.929 289.147 276.472L287.145 274.932C287.747 274.125 288.553 273.502 289.565 273.062C290.592 272.607 291.736 272.38 292.997 272.38C294.112 272.38 295.08 272.563 295.901 272.93C296.737 273.282 297.375 273.788 297.815 274.448C298.27 275.108 298.497 275.893 298.497 276.802C298.497 277.301 298.431 277.799 298.299 278.298C298.167 278.782 297.918 279.295 297.551 279.838C297.185 280.381 296.649 280.989 295.945 281.664L290.687 286.658L290.093 285.58H299.091V288H287.739ZM300.104 288V286.086L306.22 280.278C306.733 279.794 307.115 279.369 307.364 279.002C307.613 278.635 307.775 278.298 307.848 277.99C307.936 277.667 307.98 277.367 307.98 277.088C307.98 276.384 307.738 275.841 307.254 275.46C306.77 275.064 306.059 274.866 305.12 274.866C304.372 274.866 303.69 274.998 303.074 275.262C302.473 275.526 301.952 275.929 301.512 276.472L299.51 274.932C300.111 274.125 300.918 273.502 301.93 273.062C302.957 272.607 304.101 272.38 305.362 272.38C306.477 272.38 307.445 272.563 308.266 272.93C309.102 273.282 309.74 273.788 310.18 274.448C310.635 275.108 310.862 275.893 310.862 276.802C310.862 277.301 310.796 277.799 310.664 278.298C310.532 278.782 310.283 279.295 309.916 279.838C309.549 280.381 309.014 280.989 308.31 281.664L303.052 286.658L302.458 285.58H311.456V288H300.104ZM312.469 288V286.086L318.585 280.278C319.098 279.794 319.479 279.369 319.729 279.002C319.978 278.635 320.139 278.298 320.213 277.99C320.301 277.667 320.345 277.367 320.345 277.088C320.345 276.384 320.103 275.841 319.619 275.46C319.135 275.064 318.423 274.866 317.485 274.866C316.737 274.866 316.055 274.998 315.439 275.262C314.837 275.526 314.317 275.929 313.877 276.472L311.875 274.932C312.476 274.125 313.283 273.502 314.295 273.062C315.321 272.607 316.465 272.38 317.727 272.38C318.841 272.38 319.809 272.563 320.631 272.93C321.467 273.282 322.105 273.788 322.545 274.448C322.999 275.108 323.227 275.893 323.227 276.802C323.227 277.301 323.161 277.799 323.029 278.298C322.897 278.782 322.647 279.295 322.281 279.838C321.914 280.381 321.379 280.989 320.675 281.664L315.417 286.658L314.823 285.58H323.821V288H312.469ZM324.833 288V286.086L330.949 280.278C331.463 279.794 331.844 279.369 332.093 279.002C332.343 278.635 332.504 278.298 332.577 277.99C332.665 277.667 332.709 277.367 332.709 277.088C332.709 276.384 332.467 275.841 331.983 275.46C331.499 275.064 330.788 274.866 329.849 274.866C329.101 274.866 328.419 274.998 327.803 275.262C327.202 275.526 326.681 275.929 326.241 276.472L324.239 274.932C324.841 274.125 325.647 273.502 326.659 273.062C327.686 272.607 328.83 272.38 330.091 272.38C331.206 272.38 332.174 272.563 332.995 272.93C333.831 273.282 334.469 273.788 334.909 274.448C335.364 275.108 335.591 275.893 335.591 276.802C335.591 277.301 335.525 277.799 335.393 278.298C335.261 278.782 335.012 279.295 334.645 279.838C334.279 280.381 333.743 280.989 333.039 281.664L327.781 286.658L327.187 285.58H336.185V288H324.833ZM337.198 288V286.086L343.314 280.278C343.827 279.794 344.209 279.369 344.458 279.002C344.707 278.635 344.869 278.298 344.942 277.99C345.03 277.667 345.074 277.367 345.074 277.088C345.074 276.384 344.832 275.841 344.348 275.46C343.864 275.064 343.153 274.866 342.214 274.866C341.466 274.866 340.784 274.998 340.168 275.262C339.567 275.526 339.046 275.929 338.606 276.472L336.604 274.932C337.205 274.125 338.012 273.502 339.024 273.062C340.051 272.607 341.195 272.38 342.456 272.38C343.571 272.38 344.539 272.563 345.36 272.93C346.196 273.282 346.834 273.788 347.274 274.448C347.729 275.108 347.956 275.893 347.956 276.802C347.956 277.301 347.89 277.799 347.758 278.298C347.626 278.782 347.377 279.295 347.01 279.838C346.643 280.381 346.108 280.989 345.404 281.664L340.146 286.658L339.552 285.58H348.55V288H337.198ZM349.563 288V286.086L355.679 280.278C356.192 279.794 356.573 279.369 356.823 279.002C357.072 278.635 357.233 278.298 357.307 277.99C357.395 277.667 357.439 277.367 357.439 277.088C357.439 276.384 357.197 275.841 356.713 275.46C356.229 275.064 355.517 274.866 354.579 274.866C353.831 274.866 353.149 274.998 352.533 275.262C351.931 275.526 351.411 275.929 350.971 276.472L348.969 274.932C349.57 274.125 350.377 273.502 351.389 273.062C352.415 272.607 353.559 272.38 354.821 272.38C355.935 272.38 356.903 272.563 357.725 272.93C358.561 273.282 359.199 273.788 359.639 274.448C360.093 275.108 360.321 275.893 360.321 276.802C360.321 277.301 360.255 277.799 360.123 278.298C359.991 278.782 359.741 279.295 359.375 279.838C359.008 280.381 358.473 280.989 357.769 281.664L352.511 286.658L351.917 285.58H360.915V288H349.563ZM361.927 288V286.086L368.043 280.278C368.557 279.794 368.938 279.369 369.187 279.002C369.437 278.635 369.598 278.298 369.671 277.99C369.759 277.667 369.803 277.367 369.803 277.088C369.803 276.384 369.561 275.841 369.077 275.46C368.593 275.064 367.882 274.866 366.943 274.866C366.195 274.866 365.513 274.998 364.897 275.262C364.296 275.526 363.775 275.929 363.335 276.472L361.333 274.932C361.935 274.125 362.741 273.502 363.753 273.062C364.78 272.607 365.924 272.38 367.185 272.38C368.3 272.38 369.268 272.563 370.089 272.93C370.925 273.282 371.563 273.788 372.003 274.448C372.458 275.108 372.685 275.893 372.685 276.802C372.685 277.301 372.619 277.799 372.487 278.298C372.355 278.782 372.106 279.295 371.739 279.838C371.373 280.381 370.837 280.989 370.133 281.664L364.875 286.658L364.281 285.58H373.279V288H361.927Z" fill="#1D1D1F"/>
<path d="M486 70C486 47.9086 503.909 30 526 30H696V346H526C503.909 346 486 328.091 486 306V70Z" fill="white"/>
<circle cx="526.5" cy="75.5" r="13.5" fill="#8A9099" fill-opacity="0.2"/>
<path d="M556 74C556 67.3726 561.373 62 568 62H696V89H568C561.373 89 556 83.6274 556 77V74Z" fill="#8A9099" fill-opacity="0.2"/>
<path d="M517 124C517 115.163 524.163 108 533 108H696V178H533C524.163 178 517 170.837 517 162V124Z" fill="#F5F5F7"/>
<rect x="533" y="133" width="44" height="20" rx="8" fill="#8A9099" fill-opacity="0.2"/>
<path d="M590 143C590 137.477 594.477 133 600 133H696V153H600C594.477 153 590 148.523 590 143Z" fill="#8A9099" fill-opacity="0.2"/>
<path d="M515.203 226V210.6H518.063V226H515.203ZM521.788 226V210.6H529.004C530.852 210.6 532.26 210.967 533.228 211.7C534.196 212.419 534.68 213.387 534.68 214.604C534.68 215.425 534.489 216.129 534.108 216.716C533.727 217.288 533.213 217.735 532.568 218.058C531.937 218.366 531.248 218.52 530.5 218.52L530.896 217.728C531.761 217.728 532.539 217.889 533.228 218.212C533.917 218.52 534.46 218.975 534.856 219.576C535.267 220.177 535.472 220.925 535.472 221.82C535.472 223.14 534.966 224.167 533.954 224.9C532.942 225.633 531.439 226 529.444 226H521.788ZM524.648 223.756H529.268C530.339 223.756 531.16 223.58 531.732 223.228C532.304 222.876 532.59 222.311 532.59 221.534C532.59 220.771 532.304 220.214 531.732 219.862C531.16 219.495 530.339 219.312 529.268 219.312H524.428V217.09H528.696C529.693 217.09 530.456 216.914 530.984 216.562C531.527 216.21 531.798 215.682 531.798 214.978C531.798 214.259 531.527 213.724 530.984 213.372C530.456 213.02 529.693 212.844 528.696 212.844H524.648V223.756ZM535.906 226L542.836 210.6H545.652L552.604 226H549.612L543.65 212.118H544.794L538.854 226H535.906ZM539.096 222.436L539.866 220.192H548.182L548.952 222.436H539.096ZM554.123 226V210.6H556.477L566.135 222.458H564.969V210.6H567.807V226H565.453L555.795 214.142H556.961V226H554.123Z" fill="#8A9099"/>
<path d="M515.5 260C515.5 251.44 522.44 244.5 531 244.5H695.5V313.5H531C522.44 313.5 515.5 306.56 515.5 298V260Z" fill="white" stroke="#E8E9EB"/>
<path d="M531 279C531 273.477 535.477 269 541 269H696V289H541C535.477 289 531 284.523 531 279Z" fill="#8A9099" fill-opacity="0.2"/>
<defs>
<clipPath id="clip0_680_495">
<rect width="66" height="52" fill="white" transform="translate(78 117)"/>
</clipPath>
</defs>
</svg>
